<svg id="PRINT" xmlns="http://www.w3.org/2000/svg" viewBox="0 0 446.5 671.23"><defs><style>.cls-1{fill:#d6bfb9;}.cls-2{fill:#f3d4b8;}.cls-3{fill:#dbaf7b;}.cls-4{fill:none;stroke:#000;stroke-miterlimit:10;stroke-width:1.96px;}</style></defs><title>face01</title><path class="cls-1" d="M318.53,225.49c-6.24-30.73-1.06-64,15.76-90.41S379.77,89.58,410.92,86s64.08,9.08,83.57,33.64c24.78,31.22,25.39,74.58,24.88,114.44-.35,26.56-1.69,55.76-19.75,75.24-26.83,28.95-76,26.61-108.11,9.74C354.94,299.86,326.87,266.54,318.53,225.49Z" transform="translate(-72.97 -85.42)"/><path class="cls-2" d="M122.81,221.27c18.88-9.05,41.38-11.31,61-4s35.64,24.85,39,45.51c2.55,15.52-1.92,31.56-9.58,45.3-11.77,21.1-31.74,38-55.18,43.85S108,351.72,91,334.6C52.75,296.24,81.1,241.24,122.81,221.27Z" transform="translate(-72.97 -85.42)"/><path class="cls-3" d="M249,541c-14.76-14.3-29.93-28.87-48.66-37.34s-42-9.8-58.91,1.94c-13.2,9.18-20.56,24.95-23.31,40.79-7.1,40.9,13.87,83.07,45.5,109.94s72.46,40.52,113.18,48.6c14.4,2.85,29.23,5.09,43.7,2.66s28.72-10.26,35.61-23.23c8.6-16.2,3.81-36.9-7-51.73-12.28-16.85-30.88-25.46-45.94-39.14C284.58,576.62,267,558.46,249,541Z" transform="translate(-72.97 -85.42)"/><path class="cls-4" d="M311.21,756.47c-2.39-12.83-4.78-25.8-4.18-38.84s4.49-26.35,13.26-36c16-17.67,43.4-19,63.13-32.42a60.08,60.08,0,0,0,25.28-39.77c1.22-7.66.7-16.17-4.21-22.17-3.57-4.38-9-6.81-14.3-8.65a102.19,102.19,0,0,0-43.93-4.93,2.54,2.54,0,0,0-1.46,4.39,73.56,73.56,0,0,0,28.86,16.14c9,2.6,18.88,3.4,27.54-.14s15.65-12.17,15.13-21.51a18.87,18.87,0,0,0-4.72-11.36c-6.91-7.74-18.82-8.44-29-6.57-13.73,2.51-26.49,8.54-39,14.9a2.45,2.45,0,0,0,.3,4.5c17.8,5.82,40.39-4.33,56.28,6.32,4.84,3.24,9.36,8.47,15.92,5a12.74,12.74,0,0,0,4.25-3.75,99.42,99.42,0,0,0,19.35-57.15c.23-14.08-2.53-28.35.36-42.13,1.55-7.42,4.7-14.4,7.13-21.59s4.16-14.88,2.76-22.34S443.38,423.82,436,422s-16.23,3.51-16.49,11.09c5.76.14,11.65.35,17,2.41,6.49,2.48,12.25,8.18,11.76,15.6a10.29,10.29,0,0,1-5.44,8.59c-5.1,2.56-10-.22-14.21-3s-8.79-6-14.16-4.19c-3.31,1.1-5.08,4.37-3.7,7.58,2.15,5,9.69,2.86,15.11,3.78,6.1,1,10.53,7.88,9,13.87s-8.74,9.82-14.58,7.76a11.59,11.59,0,0,1-7.17-8.8,2.51,2.51,0,0,1,4.46-1.94c1.45,1.87,2.82,3.81,4.11,5.79,7,10.69,12.28,23.42,10.32,36.06s-13.22,24.39-26,23.22c-4.18-.39-8.61-2.45-9.83-6.64a5.83,5.83,0,0,1,3.21-7.15c2.63-1,4.78.67,7.11,1.46,1.84.62,4.34.4,5.09-1.38s-.82-3.69-2.4-4.83a23.15,23.15,0,0,0-23.43-1.66,3.21,3.21,0,0,0-1,4.88l2.25,2.75a3.76,3.76,0,0,1-1.85,6c-10,2.93-22.33-2.47-25.87-12.48-1.25-3.52-1.41-7.82,1.6-10.44,2.29-2,5.63-1.81,7.18.78,1.79,3-.86,6.73-3.41,9.18-8.73,8.4-18.25,16-26,25.37-8.94,10.79-15.48,24.42-13.09,38.61a29.67,29.67,0,0,0,7,14.72c11,12.35,23.83,8.07,36.23,7,9.63-.83,21,1.19,24.3,11.45a16.47,16.47,0,0,1,.34,8.42c-1.68,7.94-7.5,13.68-13.9,18.08a65,65,0,0,1-53.87,9.14c-26-6.61-52.16-13.31-76.24-25.09s-46.19-29.2-59-52.74c-16.07-29.53-15.87-64.83-16.3-98.44-.16-12.74-.56-25.87-5.69-37.53s-16.2-21.64-28.95-21.59c-13.19,0-24.58,11.06-28.28,23.73s-1,26.4,3.86,38.66c6.1,15.3,15.53,29.1,26.16,41.69,3.69,4.37,7.78,8.79,13.84,9.59a9.43,9.43,0,0,0,6.66-1.52c6.18-4.34,3.33-12.76-1.81-16.81-4.43-3.5-10.11-4.92-15.12-7.52C130.73,498.15,123.23,482.31,119,467c-1.75-6.43-3.12-13.18-2-19.75s5.31-13,11.63-15.1a12.92,12.92,0,0,1,8.13.09c4.48,1.5,5,7.78.72,9.74a21.31,21.31,0,0,0-10.79,11,21,21,0,0,0-.87,13c1.09,4.47,7.61,4.07,8.38-.47l.15-.94c.71-4.52,1.43-9.43,5.78-12a5.43,5.43,0,0,1,7.18,1.27c2.57,3.61-1,8-3.45,11.44-7.16,10.07-6,25.38,3.28,33.85a7.27,7.27,0,0,0,7.58,1.63c3.39-1.4,3.6-4.63,3.69-7.54l.54-16.25a3,3,0,0,1,5.86-.82,16.82,16.82,0,0,1,.78,5.55c-.14,4.87-.92,10.51,2.83,13.81,3.52,3.1,8.95,2.42,12.14-1,5.66-6.07,4.44-14.18,3.32-21.61-1.21-8.06-2-17.13,6.18-22.58a17.58,17.58,0,0,1,8.91-2.81c9-.43,16.72,4.23,23.85,9.13,16.27,11.19,31.57,24.5,50.19,31.07s42.25,4.42,54.44-11c23.47-22.66,39.12-52,56.4-79.65s37.56-55.06,66.4-70.32c4.95-2.61,10.21-4.87,15.78-5.49s11.52.58,15.78,4.21c4.61,3.92,6.69,10.23,6.59,16.27s-2.17,11.89-4.71,17.38c-12.16,26.35-35.63,46.5-62.22,58.13-6.79,3-14.47,5.46-21.52,3.12-8.57-2.84-13.41-11.9-16-20.57-1.93-6.57-2.92-14.35,4.12-18.94a14.56,14.56,0,0,1,7.55-2.25c8.69-.25,15.79,4.61,23.63,7.24a43.43,43.43,0,0,0,56.43-32.92c.68-3.48.89-7.27-1.17-10.3a6.53,6.53,0,0,0-4.32-2.83c-3.81-.58-6.12,2.66-6.57,5.86a23.57,23.57,0,0,0,.58,7.23c1.19,7,1.32,15-4.13,20.15-3.42,3.26-8.75,4.06-12.48,1.16-3.42-2.66-3.29-6.88-3.82-10.71-.48-3.54-2.09-7.53-6-7.86a6.51,6.51,0,0,0-4.83,1.79c-5.6,5.08-3.38,14.62-11.46,18.08a11.56,11.56,0,0,1-7,.63c-6.43-1.42-10.5-7.3-11.65-13.46-.94-5-.15-10.21,1.24-15.12a61.17,61.17,0,0,1,23.83-33.67,35.39,35.39,0,0,0,12.52-37.54c-1.19-4-3.16-8-2-12.33a6.34,6.34,0,0,1,3.32-4.11c4.95-2.29,8,3.94,12.41,3.47a5.6,5.6,0,0,0,4.38-3.89,14.13,14.13,0,0,0,.4-6.11c-1.32-13.45-6.93-26.25-14.74-37.28s-17.78-20.37-28.65-28.78c-12.66-7.67-26.42-13.71-40.94-16.61s-29.81-2.59-43.85,2.08c-3.37,1.13-6.81,2.59-8.71,5.8a6.51,6.51,0,0,0-.75,5.14c1.15,3.82,5.38,4.71,9,5.12,13.73,1.53,27.6,1.63,41.27,3.58s27.42,5.95,38.38,14.35c1.91,1.46,3.79,3.08,6.1,3.73s5.22,0,6.23-2.22c.84-1.78.17-4-.56-5.69A25.52,25.52,0,0,0,412.27,191a69.08,69.08,0,0,0-97,23.06c-1.75,3-3.26,6.78-1.46,9.73,1.32,2.17,4.1,3.08,6.64,2.93a27.09,27.09,0,0,0,7.33-2c13.23-4.63,28.17-4.74,41.09.68,13.62,5.7,24.69,17.75,28,32.2a9.16,9.16,0,0,1-.51,6.11c-2.33,4.71-7.51,3.71-10.43,1-2.16-2-3.42-4.77-4.85-7.36a54.53,54.53,0,0,0-62.15-26.22,2.87,2.87,0,0,0-1.65,4.33,63.95,63.95,0,0,0,65.36,28.39c2.57-.47,5.83-.84,7.1,1.62a3.76,3.76,0,0,1-.56,4.06c-1.81,2.17-4.6,2.45-7.22,2.55A85.55,85.55,0,0,1,320,248.42c-3.68-3.55-7.18-7.54-11.89-9.53s-11.13-1.17-13.49,4a48.39,48.39,0,0,0-11,36.26c.61,5.36,2.14,10.68,1.74,16.06s-3.4,11.11-8.62,12.48a6.87,6.87,0,0,1-4.52-.26c-2.47-1.12-3.73-4-4-6.66s.17-5.42.08-8.13a11.88,11.88,0,0,0-2.7-7.68c-1.87-2-5-3-7.54-1.84-3,1.46-4,5.33-6.62,7.48a7.14,7.14,0,0,1-11.58-4.25c-.5-2.81.7-5.77,0-8.53a6.3,6.3,0,0,0-11.4-1.81c-1,1.53-1.26,3.4-1.89,5.1s-1.87,3.43-3.68,3.67a4.14,4.14,0,0,1-3.64-1.72,9.38,9.38,0,0,1-1.56-3.88,16.49,16.49,0,0,1,.29-8.79,10.72,10.72,0,0,1,6.53-6.47,22.19,22.19,0,0,0-11.21,8.67,15.28,15.28,0,0,0-1.47,13.8c1.87,4.43,6.6,7.67,11.39,7.22A29,29,0,0,0,229,292a10.81,10.81,0,0,1,6-.54c2,.51,3.74,2.24,3.69,4.27-.07,3.2-4.22,5.17-4.27,8.36,0,2.5,2.52,4.28,5,4.82s5,.32,7.38,1.2c2.75,1,4.72,3.44,6.51,5.78,5.7,7.43,10.9,15.23,16,23.26,2.26,8.66,4.57,17.45,9.18,25.12,1.29,2.14,2.81,4.55,2.11,6.95a5.78,5.78,0,0,1-2.26,2.95c-3.09,2.27-7.22,2.47-11.05,2.27s-7.79-.69-11.16.71c-12.58.73-25-2.75-36.87-7-12.56-4.53-25-10.11-33.57-21.27a33.09,33.09,0,0,1-5.79-12.18c-.49-2-.78-4.15.08-6s2.79-3.11,4.6-4.19l30-18c4.19-2.51,9.37-5.08,13.71-2.83,3,1.56,4.59,5,7.31,7.11,2.21,1.68,5,2.31,7.71,2.95s5.49,1.41,7.55,3.27,3.09,5.16,1.58,7.48c-1.3,2-4,2.62-6.35,2.18a22,22,0,0,1-6.48-2.88c-7.85-4.4-17.18-7.31-25.84-4.89-5.47,1.53-10.13,5-15,8a32.16,32.16,0,0,1-11.08,4.56,1.61,1.61,0,0,0-.42,3.06,23,23,0,0,0,11.17,1.25c5.57-.64,10.91-2.57,16.45-3.46,17.25-2.76,35.77,5.87,44.77,20.84,2.93,4.88,5,10.45,9.2,14.29,1.33,1.22,3.28,2.27,4.85,1.39s1.68-3,.88-4.48a9.63,9.63,0,0,0-3.74-3.32c-20.74-12.6-44-22.51-68.24-22.71a15.09,15.09,0,0,0-7,1.16c-2.13,1.09-3.79,3.43-3.36,5.78s2.86,4,5.05,5.15c18.14,9.75,37.77,17,58.17,19.92,4.69.66,9.45,1.11,14,2.6,5.6,1.86,10.9,5.58,12.48,11.6a10.85,10.85,0,0,1-.47,7c-2.48,5.67-8.63,6.63-14,6.24a58.06,58.06,0,0,1-19.27-5.31c-6.45-2.89-12.55-6.49-18.93-9.51s-13.15-5.51-20.2-5.94-14.44,1.39-19.72,6.08c-6.2,5.5-8.83,15.32-3.85,22.47a8.37,8.37,0,0,0,7.56,3.78c4.86-.49,6.45-5.23,9.27-8.46,3.87-4.42,10.25-5.95,16.1-5.35s11.33,3,16.12,4.12c20,13.68,40.2,27.46,62.61,36.7,9.05,3.73,18.59,6.73,28.37,6.79,10,.06,20.43-3.3,27.16-10.79a8.34,8.34,0,0,0,2.2-4.08c.72-4.21-3.34-5.95-6.53-5.27-2.39.51-4.41,2-6.4,3.46-18.7,13.45-41.25,21.2-64.18,23.41s-46.23-1-68.17-8c-14.51-4.67-28.6-11.06-40.79-20.21S146.34,402.39,141,387.78c-8.66-15.76-11.63-34.14-11.32-52.11s3.71-35.74,7.1-53.39c7-36.35,14.21-73.33,31.71-105.94,7.43-13.84,17.07-27.12,30.69-35,19.24-11.06,45.24-8.9,62.38,5.2,3.52,2.89,6.8,6.42,7.18,11.24a7.93,7.93,0,0,1-1.81,5.81c-3.54,4.08-9.28,2.51-13.95.8L213.1,149.88c-4.41-1.61-9.12-3.43-11.09-8.14a6.33,6.33,0,0,1,1.65-7.37c3.61-2.85,8.45-.06,12,2.64,10.84,8.37,21.75,16.82,30.69,27.19,9.4,10.91,16.57,24.26,17.46,38.7a3.83,3.83,0,0,1-2.45,3.89c-3,1-4.95-2.95-5.86-5.94a41.82,41.82,0,0,0-64-22.09,2.94,2.94,0,0,0,0,4.81c3.14,2.21,7.36,3,11.29,2.85,5.24-.21,10.34-1.78,15.56-2.25,15.05-1.33,30.33,7.8,36.77,21.37a3.18,3.18,0,0,1-2.62,4.58A55.83,55.83,0,0,1,214.9,198.5c-5.35-4.21-10.71-9.71-17-11.26a2.56,2.56,0,0,0-3,3.53,46.63,46.63,0,0,0,56,25.16,1.32,1.32,0,0,1,1.27,2.24,48,48,0,0,1-66.73-.43" transform="translate(-72.97 -85.42)"/></svg>