<svg xmlns="http://www.w3.org/2000/svg" viewBox="0 0 382.81 409.65"><defs><style>.cls-1{fill:#c68a5c;}.cls-2{fill:#d5a978;}.cls-3{fill:#885a3e;}.cls-4{fill:#e99465;}.cls-5{fill:#ffd49a;}.cls-6{fill:none;stroke:#000;stroke-miterlimit:10;stroke-width:0.25px;}</style></defs><title>pigeon</title><g id="OBJECTS"><path class="cls-1" d="M373,403.34c3.21-1.29,6.47-2.78,8.72-5.39s3.22-6.61,1.44-9.7a12.21,12.21,0,0,0-5-4.27c-8.1-4.39-17.22-6.27-26.21-7.79-64.44-10.87-133.77-9.34-197.66-1C140,377.1,125.57,379.77,113.4,387a14.42,14.42,0,0,0-5.5,4.91c-2.65,4.73.08,11.22,4.57,14.62s10.23,4.46,15.72,5.34c33.09,5.28,65.48,5.66,98.48,6.5C275.81,419.61,327.36,421.69,373,403.34Z" transform="translate(-77.43 -46.13)"/><path class="cls-2" d="M196,315.93c16.08,9.41,32.74,17.92,50.31,24.09,15.25,5.35,31.08,8.9,47,11.85,19.54,3.62,39.93,7.57,59.57,9.45,12.91,1.24,26.46-.4,37.61-7,21.28-12.65-19.83-40.25-30.05-47q-35-23-67.69-49.34c-50.85-41.05-98.3-90.08-120.33-151.61-3.45-9.65-6.29-19.62-11.51-28.44S147.57,61.37,137.52,59.4,115.69,62.85,113,72.72c-4.72,17.08,16.14,27.63,15,43.58-.49,6.83-3.77,13.88-4.73,20.81a220.05,220.05,0,0,1-6.62,31.39c-10,34.64-1.36,74,21.7,101.84,15.32,18.52,35.43,32.44,56.13,44.66Z" transform="translate(-77.43 -46.13)"/><path class="cls-3" d="M131.17,72.31c7.41,1.2,5.83-14-2.07-9.49C125.19,65,127,71.64,131.17,72.31Z" transform="translate(-77.43 -46.13)"/><path class="cls-4" d="M343.05,156.44c-6.75,16.82-21.12,21.06-35.93,28.13-15.67,7.48-28.15,7.32-43.6-2.62a94.32,94.32,0,0,1-34.2-39.22c-7-15.13-11.52-37.07-3.64-52.85,13.26-26.51,43.93-35.37,71-27.18,26.9,8.14,48.12,46.82,49.39,73.17A48.88,48.88,0,0,1,343.05,156.44Z" transform="translate(-77.43 -46.13)"/><path class="cls-5" d="M394.1,219.5a23.67,23.67,0,0,1,.53,3.25c1.42,14.88-15.34,32-29.83,32.67-9.26.41-18.3-3.66-25.48-9.52C321.06,231,328.14,199.31,351,193.72c10.72-2.62,22.43.74,31.06,7.63C387.83,206,392.47,212.34,394.1,219.5Z" transform="translate(-77.43 -46.13)"/><path class="cls-5" d="M139.94,316.65c14,5.3,22.26,19.84,4.37,30.64-10.45,6.31-29.66.93-31.35-12.49a21.41,21.41,0,0,1,1.67-10.61,16.46,16.46,0,0,1,3.19-5.3c2.9-3.07,7.33-4.33,11.55-4.27A31.41,31.41,0,0,1,139.94,316.65Z" transform="translate(-77.43 -46.13)"/><path class="cls-6" d="M457.53,356c-15-12.75-33.17-20.66-50.68-29.42-3.92-3-8.17-5.62-12.18-8.18L380,309.08c-4.29-2.74-8.63-5.95-13.72-6.93-.49-1.1-1.09-2.16-1.63-3.14a45.58,45.58,0,0,0-4-5.94,71.05,71.05,0,0,0-10.41-10.54c-8.26-6.95-17.26-13-25.88-19.56q-6.63-5-13.19-10.12c-5.36-5.9-11.84-10.55-18.3-15.18-7.41-5.33-14.4-11-21.26-17Q250.8,202.43,231.05,183c-12.56-12.33-25.51-24.81-34.16-40.32-4.36-7.82-7.73-16.14-11-24.45-3.21-8.07-7.36-15.68-10.8-23.64-5.59-12.92-7.59-27.94-17.68-38.5-15.14-15.84-48.62-12.4-57.32,8.9a16.43,16.43,0,0,0-.78,10.68A25.55,25.55,0,0,0,93.77,80a34.38,34.38,0,0,0-16.19,22.73c-.26,1.34,1.65,2,2.11.83,6.49-4.45,13.53-9.2,21.64-9.56,7.46-.33,14.23,3.32,16.64,10.64,2.19,6.62,1.26,14,.4,20.74-1,7.59-2.32,15.12-3.76,22.63-5.76,29.93-13.87,61.16-8.23,91.74a83.33,83.33,0,0,0,18.33,39.12c9.4,11,21.32,19.69,33.74,27,14.35,8.48,29.63,15.2,44.32,23,6.19,3.31,12.34,6.74,18.38,10.32,5.89,3.48,11.79,7.24,16.61,12.15,2.19,2.23,4.59,4.93,5.35,8,1,3.91-.51,8-2.35,11.38a58.18,58.18,0,0,1-6.74,9.58c-2.25,2.7-4.73,5.37-7.86,7-3.94,2.1-8.13,1.61-12.3.51s-8.49-2.27-12.84-3.07c-7.19-1.32-16-3.16-22.71.74a12.23,12.23,0,0,0-5.58,6.71,1.11,1.11,0,0,0,1.61,1.23c6.52-3.67,14.25-1.79,21,.28,5.23,1.61,10.62,3.36,16.07,3.32a14.88,14.88,0,0,0-2.94,3.45,1.11,1.11,0,0,0,.65,1.61c8.13,1.38,15.54-2.37,23.18-4.47,4.18-1.15,8.45-1.68,12.69-.53,4.62,1.25,8.68,4,12.54,6.71a1.1,1.1,0,0,0,1.49-.39c2.51-5-1.49-10.16-6-12.15-3.06-1.33-6.38-1.78-9.49-2.92-1.27-.46-2.35-1-2.05-2.67.1-.57.9-1.31,1.25-1.8,1-1.38,2-2.74,3-4.09,7.72-10.38,17.68-21,30.94-23.65a55.23,55.23,0,0,1,10.36-.67c3.73,0,7.45-.22,11.17-.19a71,71,0,0,1,22.42,3.5c12.5,4.26,23.18,12.7,33.7,20.44,6.95,5.11,13.7,10.51,20.5,15.84,3.29,2.57,6.59,5.13,9.93,7.64,2.54,1.9,5.79,5.39,9.25,4.81q3.11,3.69,6.22,7.35c10.78,12.69,21.56,25.4,32.43,38,1.25,1.45,3.82,3.78,5.79,2s.32-6.33-.21-8.38c-1.79-7-5.38-13.37-9.49-19.23-4.69-6.69-9.81-13.11-14.68-19.68s-9.63-13.1-14.7-19.44Q395,383,390.49,377.93a88,88,0,0,0-9.17-9.35l-1.38-1.11q3.39.86,6.82,1.56a103.09,103.09,0,0,0,30.39,2c3.9-.39,8.56-.65,12.14-2.37a4,4,0,0,0,2.59-3.82,7.4,7.4,0,0,0-1.63-4,69.5,69.5,0,0,0,8,1.77,76.71,76.71,0,0,0,16.86.74c1.83-.11,4.2-.14,4.89-2.23S458.92,357.21,457.53,356Zm-48.34-24.46c2.47,2.17,5.47,4.72,6.58,7.93s-1.21,4.51-4.09,4.4c-3.46-.14-7-1.49-10.27-2.44l-.64-.19a49.72,49.72,0,0,0-4.27-2.83,99.56,99.56,0,0,0-12.25-6.79,102.83,102.83,0,0,0-14.69-5.55c-2.18-.63-9.13-3.54-9.47.75a1.09,1.09,0,0,0,.55,1,188.82,188.82,0,0,0,27,11.63q5.87,2,11.84,3.76c1.64,1.43,3.13,3.77-.1,4.39-7.57,1.45-15.49-.2-22.8-2.25l-2.25-.66c-1.14-.57-2.21-1-3-1.41a173.49,173.49,0,0,0-22.09-9c-3.64-1.18-7.44-2-11-3.41-3.2-1.24-6.07-2.47-9.34-.74a1.11,1.11,0,0,0,0,1.91c8.37,4.22,17.48,6.52,26.45,9.07,6.06,1.72,12,3.84,18.08,5.64.69.35,1.37.71,2,1.09,1.09.62,2.7,1.58,2.63,3-.06,1.29-1.43,2-2.48,2.38-2.43.89-5.17.63-7.7.54q-4.11-.15-8.2-.66C338.9,350.6,319.52,342,300,334.8a23.64,23.64,0,0,0,4-.79c2.15-.64,5.29-1.6,6.69-3.47a3,3,0,0,0,.53-2.54c2.25.38,4.53.66,6.81.83,2.54.18,5.29.29,7.65-.87,4.67-2.3,4.43-6.29,2.13-9.91a42.18,42.18,0,0,0,4.55,1c3,.47,6,.73,9.08,1s6.24.63,9.06-.72a6.48,6.48,0,0,0,3.88-5.2,6.24,6.24,0,0,0-.48-2.67c5,.84,14.27.93,13.34-6.25a2,2,0,0,0-.05-.24c2.62,1.29,4.94,3.84,7.09,5.48,4.22,3.24,9.08,5.85,13.67,8.53,5.52,3.22,11.15,6.18,16.83,9.05C406.24,329.11,407.74,330.3,409.19,331.57ZM278.34,229.62c2,1.68,4,3.28,6.12,4.85,4.91,4,9.84,8,14.82,12,3.18,2.52,6.38,5,9.58,7.5,1.2,1.25,2.36,2.56,3.46,3.94,4.07,5.1,7.79,10.56,11.4,16,2.26,3.39,6.85,10.06,3.73,14.11-2.21,2.86-7.77,1.06-10.59.08-.45-.15-.9-.32-1.34-.51l-.86-1.12c-2.91-3.75-6.23-7.11-9.47-10.56-2.16-2.3-4.43-4.72-7.55-5.68-1.11-.34-2.62-.66-3.64.09s-1.09,2.38-.7,3.55c1.11,3.29,5.47,5.44,8.07,7.37,3.54,2.62,7,5.43,10.94,7.47.52.27,1.12.56,1.76.85a29.3,29.3,0,0,1,3.55,6.21c1.35,3.41,1.26,8-3.08,9-4.93,1.17-10.79-1.65-15.23-3.5-1.08-.45-2.14-.93-3.19-1.41-3.75-3.95-7.49-7.9-11.6-11.49q-2.28-2-4.67-3.9c-1-.82-2.43-2.3-3.92-1.94-3.15.76-.83,5.3.35,6.7,2.48,3,6,5.37,9.17,7.5a65.35,65.35,0,0,0,9.46,5.2l4.38,4.64c2.62,2.75,7.44,7.91,3.91,11.72-1.93,2.08-5.31,1.51-7.74.87a38.34,38.34,0,0,1-7.8-3.14c-1.54-3.49-4.84-6.86-6.78-8.92a78,78,0,0,0-25.4-18.4,1.2,1.2,0,0,0-1.78,1c-.23,3.65,2.86,6.11,5.28,8.37,2.12,2,4.23,4,6.47,5.8,2.77,2.29,5.66,4.45,8.61,6.52a107.42,107.42,0,0,0,11.55,7.18A7.19,7.19,0,0,1,286,319c.49,3.14-2.77,4-5.26,4.41a22.91,22.91,0,0,1-10.2-.84,39.18,39.18,0,0,1-5.9-2.3c-.39-2.05-1.77-4.18-2.81-5.88a48.64,48.64,0,0,0-4.18-5.79,66.29,66.29,0,0,0-10.45-9.85,96.28,96.28,0,0,0-12-7.83,1.19,1.19,0,0,0-1.73.7c-1.27,3.67,2.68,7.42,4.86,10a94.33,94.33,0,0,0,8.53,8.9,72.16,72.16,0,0,0,15.45,11.22,2.21,2.21,0,0,1-1.9,1.2c-3.51.62-7.55-.77-10.84-1.79a147.64,147.64,0,0,1-15.66-6.05c-8.89-3.93-17.62-8.26-26.16-12.9-13.67-7.44-27.28-16.22-38-27.61-12.73-13.54-21.38-33-16.71-51.75,4.36-17.51,20.51-29,37.7-31.86,20.49-3.45,41.09,4.89,58,15.85A278.52,278.52,0,0,1,274,225.87C275.44,227.12,276.88,228.38,278.34,229.62Zm-15.65,94.9a3.75,3.75,0,0,0,1.75-1.79c1.3.6,2.63,1.14,4,1.61a27.15,27.15,0,0,0,11,1.56c2.89-.25,6.82-.91,8.39-3.7a5.56,5.56,0,0,0,.68-3.2,41.65,41.65,0,0,0,4.19,1.76,1.1,1.1,0,0,0,.35,1.58,72.54,72.54,0,0,0,15.58,5.18,2.56,2.56,0,0,1,.11.24c.43,1.39-.35,1.89-1.4,2.47-4.05,2.21-8.5,2.65-13,2.54A169.41,169.41,0,0,0,262.69,324.52Zm62.39-58.17c8.11,6.1,16.58,11.81,24.29,18.41a70.15,70.15,0,0,1,9.29,9.43,42.59,42.59,0,0,1,3.7,5.43,33.91,33.91,0,0,1,1.89,3.44.91.91,0,0,0,.37.95,4.54,4.54,0,0,1,.19,2.75c-.93,3-5.22,3-7.73,2.77a28.46,28.46,0,0,1-4.73-.78c-.55-.74-1.15-1.45-1.72-2.1a29,29,0,0,0-15.24-8.83,1.16,1.16,0,0,0-1.28.52c-1,1.65-.05,3.24,1.31,4.36a47.11,47.11,0,0,0,7,4.36,39.67,39.67,0,0,0,8.7,3.7,5,5,0,0,1,.93,3.52c-.57,3-4.28,3.69-6.79,3.66-6.84-.07-13.86-.82-20.25-3.21-2.76-2.63-6.29-4.57-9-4.65-1.21,0-1.4,1.49-.57,2.1a35.67,35.67,0,0,0,8.24,4.52c.59.63,1.14,1.26,1.64,1.87,1.48,1.79,2.75,4.23.87,6.24-1.71,1.84-4.4,1.95-6.74,1.85a63,63,0,0,1-9.68-1.16l0-.05a19.82,19.82,0,0,0-6.93-4.14,6.57,6.57,0,0,0,3.39-3.34c2.36-5.14-2.39-10.24-5.75-13.68,4.07,1.7,8.38,3.21,12.68,3s8-3.47,7.76-8a17.5,17.5,0,0,0-3-8.32c4.81,1.45,10.35,1.74,12.33-3.05,2.16-5.22-1.87-11.45-4.68-15.61-2.68-4-5.37-8-8.23-11.86C319.89,262.4,322.48,264.39,325.08,266.35Z" transform="translate(-77.43 -46.13)"/></g></svg>