<svg id="PRINT" xmlns="http://www.w3.org/2000/svg" viewBox="0 0 662.78 1224.38"><defs><style>.cls-1{fill:#deccc1;}.cls-2{fill:#f3efec;}.cls-3{fill:#fff;}.cls-4{fill:#bd7872;}.cls-5{fill:none;stroke:#2f2f2d;stroke-linecap:round;stroke-miterlimit:10;stroke-width:3.6px;}.cls-6{fill:#2f2f2d;}</style></defs><title>woman02</title><path class="cls-1" d="M65.91,16.66c48.51-6.29,104.77-14.37,152.92-1.38,42.81,11.55,77.08,38.39,99.35,76.38,14.12,24.08,27.21,44.43,52,58,42.51,23.28,88.94,50.38,114.35,93.4,17.35,29.38,33.75,64.32,24.62,98.66-6.7,25.17-24.66,45.47-32.21,70-8.56,27.74-2.78,64.24,2.95,91.52,3.48,16.55,16.48,16.16,30.34,27.91,12.85,10.9,25.18,22.31,26.38,39.68,1.33,19.16.65,41.94-1.09,61.7C529.73,698,471.92,758.94,405.12,765.35c-39.72,3.81-76.52-20.12-108.56-40.14C235,686.72,179,640.4,135.62,581c-17.26-23.63-29-48.58-40.68-75.21-14-31.71-32.62-61-45.15-93.32C35.14,374.61,21.92,336.59,12.65,297,1.74,250.5,1.37,202.36,3.29,154.86,5.44,101.92-4.17,25.74,65.91,16.66Z" transform="translate(36.45 5.9)"/><path class="cls-1" d="M-10.95,10q-1.67,2.37-3.26,4.76c-.52.79-1.07,1.59-1.55,2.39l-1.37,2.39c-.89,1.59-1.8,3.19-2.61,4.78s-1.48,3.15-2.19,4.71c-.34.79-.71,1.57-1,2.35l-.87,2.29c-.58,1.53-1.13,3.06-1.67,4.57s-.89,2.95-1.32,4.42S-27.67,45.59-28,47A117.43,117.43,0,0,0-31.1,77a179.93,179.93,0,0,0-4.78,30.8,247.29,247.29,0,0,0-.42,25.49c.06,1.93.13,3.82.22,5.7s.2,3.64.29,5.45c.23,3.51.45,7,.67,10.41.44,7.59,1,15.07,1.83,22.63,1.52,15.08,3.52,30.36,5.52,47.06l3.08,26.34c1,9.26,2.12,19.09,3.37,29.69.74,4.67,1.74,9.25,2.63,13.75q.78,3.36,1.55,6.68l.78,3.28.81,3.13c2.14,8.32,4.42,16.32,6.81,24.07,4.76,15.5,9.87,30,15.09,44.32s10.57,28.34,15.93,42.83l1,2.73,1.07,2.85c.76,2,1.49,4,2.27,5.94L29,436.05l2.42,5.9c3.28,7.85,6.72,15.7,10.17,23.65,7,2.73,14.22,11.46,21.24,23.31a186.2,186.2,0,0,1,10.09,19.9l2.3,5.5,2.46,6.11,5.14,12.74c3.52,8.66,7.38,17.62,11.69,26.45a232.34,232.34,0,0,0,14.41,25.53c1.34,2,2.68,4,4,5.88l2.09,2.83,1,1.4,1,1.29c2.75,3.44,5.5,6.72,8.22,9.79s5.6,5.8,8.34,8.35l2.06,1.86,2.09,1.72c1.39,1.11,2.76,2.16,4.13,3.13,1.52,1.57,3,3.06,4.5,4.5s3,2.72,4.42,4c2.89,2.5,5.55,4.79,8.12,6.64,5.12,3.73,9.29,6.31,12.26,7.36s4.59.77,4.48-1.08a10.19,10.19,0,0,0-1.51-4,59,59,0,0,0-4.27-6.56c2.06,2.08,3.91,4,5.64,5.84s3.34,3.43,4.78,5,2.75,3,3.93,4.34,2.3,2.56,3.29,3.72c2,2.32,3.58,4.36,5,6.22s2.59,3.51,3.76,5.1a67,67,0,0,0,8.26,9.8c1.85,1.8,4.06,3.75,6.81,6s6.13,4.59,10.21,7.38c-4.83-1.06-9.74-2.09-14.62-3.25,9,9.65,18.24,21.55,32.91,30.77,6.62,1.92,13.15,3.85,19.76,5.55,2.15,2,4.26,4,6.41,5.82s4.27,3.52,6.39,5.14a149.15,149.15,0,0,0,12.69,8.67c4.22,2.62,8.25,4.83,12.47,7.06,2.07,1.1,4.19,2.17,6.32,3.22s4.26,2.09,6.43,3.11c8.69,4.07,17.72,8,27.7,12.16S359,772.46,372.3,776.7a62.9,62.9,0,0,1-8.91-4c-1.76-1-2.5-1.67-2.49-2s.76-.45,2-.37c.62.05,1.36.13,2.19.24l1.3.19,1.44.15,6.37.7c2.21.09,4.38.15,6.24.09a13.11,13.11,0,0,0,4.43-.75c1-.41,1.4-1,1-1.71a28.78,28.78,0,0,0,3.85,1.36c1.58.39,3.44.69,5.42,1,1,.14,2,.35,3.05.44l3.15.21c2.1.11,4.25.33,6.14.27s3.7,0,5.21.05a33,33,0,0,1,3.55.08c1.65.18,1.7.65-1,1.63A96.21,96.21,0,0,0,447,764.54a145.18,145.18,0,0,0,25.39-16.47c7.42-5.9,13.86-11.84,19.9-17.09s11.68-9.84,17.69-13.18c2.65-4.93,5.16-9.85,7.28-14.94,1.54-3.13,2.92-6.22,4.41-9.15s2.87-5.81,4.22-8.66,2.72-5.63,4.13-8.36l2-4.15c.69-1.36,1.31-2.75,1.93-4.14a172.44,172.44,0,0,0,6.87-17,106.76,106.76,0,0,0,4.52-18.49l-3.5-3.73c-.4-7.78-.21-18.52.16-29.19.19-5.34.44-10.66.75-15.6.16-2.47.33-4.84.53-7.07.09-1.11.2-2.19.32-3.23s.23-2.14.34-3.13.13-2,.23-2.89a40.19,40.19,0,0,0-1.77-9.29,46.78,46.78,0,0,0-4-8.9c-.4-.72-.87-1.4-1.31-2.1s-.9-1.4-1.41-2.06l-1.49-2-1.55-1.85a71.74,71.74,0,0,0-6.63-6.75c-2.3-2.11-4.69-4-7.09-5.89-1.21-.93-2.41-1.84-3.62-2.73-.58-.43-1.28-.92-2-1.39s-1.35-1-2-1.39a75.73,75.73,0,0,0-8.46-4.62l-1.89-.84-1.85-.79c-1.23-.54-2.49-1.06-3.72-1.65a29.26,29.26,0,0,1-7-4.36,20.13,20.13,0,0,1-4.93-6.61c-1.1-2.53-1.91-5.18-2.83-7.87q-.66-2.07-1.32-4.11c-.44-1.42-.87-2.83-1.31-4.24a248.5,248.5,0,0,1-8-33.64c.38-11.06.87-18.07.79-23.15a62.86,62.86,0,0,0-.42-6.4c-.2-1.81-.64-3.39-.94-5s-.71-3.14-1-5a44,44,0,0,1-.39-6.45c.22-5,1.48-12.09,5.63-21.72,3.5-5.65,7.32-12.18,10.95-18.92a159.52,159.52,0,0,0,9.37-20.35c.67-1.65,1.13-3.28,1.68-4.87s.9-3.17,1.37-4.69c.32-1.52.65-3,1-4.43.09-.35.17-.71.26-1.06s.11-.72.17-1.07c.12-.71.24-1.4.36-2.08s.27-1.35.4-2,.17-1.32.27-1.95c.19-1.27.4-2.48.66-3.63a31.32,31.32,0,0,1,1.36-6.09c.65,7.66.68,13.6.74,19a115.23,115.23,0,0,1-.84,15.09,65.08,65.08,0,0,1-4,15.69c-2.19,5.72-5.55,12-10.4,19.82,2.43-2.67,2-.47.37,3.88s-4.31,11-6,17.16a57.51,57.51,0,0,0-1.8,8.58,20,20,0,0,0-.21,5.66c.17,1.16.56,1.44,1.25.55s1.63-3,3.27-6.35l.2-1.51.31-1.5c.21-1,.4-2,.64-3.05.55-2,1.06-4.08,1.77-6.13a126.63,126.63,0,0,1,4.83-12.4c3.69-8.31,8.15-16.68,12.22-25.49,2.05-4.39,3.93-8.94,5.61-13.59a94.08,94.08,0,0,0,3.88-14.45,33.08,33.08,0,0,0,.58-3.72l.46-3.73c.15-1.25.13-2.5.21-3.75s.13-2.5.15-3.75l-.12-3.75c-.06-1.24,0-2.5-.19-3.73L513.9,311l-.19-1.86-.3-1.83a129.1,129.1,0,0,0-7.94-28.17A191.56,191.56,0,0,0,492.9,253.8c-1.17-2-2.38-3.94-3.56-5.88l-3.67-5.71c-1.31-1.84-2.62-3.66-3.91-5.48-.67-.89-1.26-1.82-2-2.66l-2.11-2.53a118.58,118.58,0,0,0-18-17.56c1.35-.49,1.56-1.79.81-3.76a19.09,19.09,0,0,0-1.81-3.45c-.41-.65-.87-1.35-1.39-2.06s-1.13-1.42-1.77-2.17c-1.28-1.51-2.74-3.14-4.36-4.86s-3.53-3.38-5.5-5.18l-1.5-1.36-1.59-1.33-3.31-2.71c-2.24-1.85-4.66-3.62-7.14-5.43a296.38,296.38,0,0,0-31.81-19.75c-10.5-5.72-20.07-10.4-26.44-13.5l-.26-3.31a115.53,115.53,0,0,1-13.24-9.78,130.93,130.93,0,0,1-11.84-11.49c-3.93-4.3-8-9.16-12.39-15s-9.2-12.5-14.88-20.41a178.38,178.38,0,0,0-21.4-27.94,187.75,187.75,0,0,0-25.69-22.78,219.47,219.47,0,0,0-28.06-17.49c-9.55-5-19.18-9.34-28.71-13.2C203.23,1.62,187.46-1,172.08-1.48a219.2,219.2,0,0,0-44.2,3.54,307,307,0,0,0-36.65,9c-10.47,3.24-19,6.42-24.89,8.93,17.73,0,34.91-1.53,51.56-2.94,8.33-.76,16.53-1.38,24.61-2s16-.86,23.82-.77c15.57.08,30.65,1.54,44.13,5.8a90.21,90.21,0,0,1,9.78,3.62c1.57.71,3.13,1.36,4.63,2.15s3,1.6,4.41,2.43c.72.42,1.44.81,2.14,1.27l2.05,1.39q2,1.39,4,2.84c1.26,1,2.48,2.09,3.67,3.15a39.57,39.57,0,0,1,3.41,3.32A108.17,108.17,0,0,0,220,29.35c-1.72-.49-3.34-1-4.92-1.35s-3.11-.63-4.58-.89-2.87-.53-4.28-.68-2.77-.24-4.12-.34-2.67-.16-4-.22l-4,.05-4.12.12c-1.39,0-2.85.21-4.34.31l-4.64.39c-1.6.12-3.3.37-5.07.56s-3.61.38-5.57.64l-6.23.83c6.13,1.24,12.15,2.65,18,4.3-2.42.08-4.9.36-7.34.57l-3.66.32-3.7.44c3.7,1.89.64,3.52-3,5.14-.9.41-1.84.8-2.72,1.22a25.14,25.14,0,0,0-2.42,1.32c-1.37.88-2.14,1.78-1.59,2.7,4.39-.1,8.63.09,12.92.17,4.19.26,8.43.42,12.5.88l3.08.29c1,.08,2,.26,3,.39,2,.29,4,.52,6,.85L201,48.44c1,.15,1.91.39,2.84.62l2.81.68c-11.75-4.38-14.11-6.18-11.72-7.86,1.17-.81,3.35-1.34,5.84-1.9,1.23-.25,2.56-.55,3.81-.77s2.44-.41,3.5-.66a141.4,141.4,0,0,1,23.76,9.31c-2.36-1.94-7.07-4.76-9.07-6.31-1-.81-1.23-1.38-.06-1.49s3.8.16,8.41,1.5c2.41,1.1,5,2.38,7.69,3.56,1.39.56,2.71,1.29,4.11,2s2.82,1.31,4.17,2.11,2.73,1.56,4.08,2.37l1,.61,1,.68,1.9,1.37a39.32,39.32,0,0,1,6.72,6.17l-5.29-1.44c-1.76-.43-3.56-.77-5.3-1.15-.88-.18-1.73-.39-2.62-.53l-2.65-.41-2.61-.4-1.29-.2-1.33-.13a49.88,49.88,0,0,1,18.54,10.62A79.89,79.89,0,0,1,272,82.2l2.67,4.17c.84,1.42,1.69,2.84,2.53,4.27s1.68,2.85,2.52,4.28,1.75,2.82,2.56,4.31,1.74,2.89,2.69,4.31,1.81,2.95,2.82,4.39l.77,1.09,1,1.42c.65,1,1.32,1.9,2,2.84,1.44,1.93,2.9,3.81,4.56,5.76-.09,2.46-.2,4.91-.19,7.45v3.81l.13,3.89a207,207,0,0,0,13.24,17.26,148.61,148.61,0,0,0,16.81,16.75c-2-.49-4-1-6.05-1.57a142,142,0,0,0,23.53,18.56l3.19,1.95,2.86,1.71,4.37,2.57c2.94,1.72,5.73,3.42,8.6,5.13,9.62,4.69,15.34,6.64,19.39,7.37a24.82,24.82,0,0,0,8.64,0l5,3.07,2.47,1.5,2.37,1.5,4.56,2.89c1.45,1,2.81,1.91,4.12,2.82s2.59,1.78,3.68,2.66S415,220,416,220.83s1.76,1.56,2.47,2.28a18.83,18.83,0,0,1,1.66,2.09c-5.44-2.36-11.08-4.51-16.78-6.54l3,2.68c1,.88,2,1.76,3,2.68l2.85,2.71c.95.91,1.93,1.79,2.79,2.72a12.07,12.07,0,0,1-1.54-2c-.16-.38,0-.5.44-.41a21.36,21.36,0,0,1,4.88,2.48c1.08.66,2.3,1.36,3.45,2.11s2.27,1.51,3.36,2.2,2.11,1.3,3,1.8a10.25,10.25,0,0,0,2,1c1.41,1.54,2.8,2.92,3.94,4.24l3.09,3.64c.47.55,1,1.07,1.35,1.59l1.12,1.48,1.95,2.59a40.18,40.18,0,0,1,2.73,4c.71,1.13,1.28,2.07,1.78,3a46.83,46.83,0,0,1,2.22,5.59c.46,1.29,1,2.78,1.62,4.61s1.43,4.23,2.37,7a81,81,0,0,1,8.67,15A104.87,104.87,0,0,1,466.15,303c1,3.92,1.73,7.1,2.48,9.23a6.65,6.65,0,0,0,1.43,2.52,2.73,2.73,0,0,0,2,.91c0,.92-.07,1.82-.07,2.73s-.21,1.7-.29,2.55a15.62,15.62,0,0,1-.36,2.43l-.2,1.18-.08.59-.16.55c-.21.74-.4,1.47-.56,2.21s-.5,1.39-.71,2.1c-.11.34-.22.69-.31,1s-.32.77-.47,1.16l-.45,1.17c-.15.4-.37.83-.55,1.25a129.21,129.21,0,0,1-5.95,11.7c-2.5,4.47-5.54,9.52-8.86,15.26s-6.92,12.21-10.37,19.6a135.92,135.92,0,0,0-9,25,154,154,0,0,0-3.93,25.3,213.75,213.75,0,0,0-.31,22.64c1.71,8.36,3.87,16.21,6.22,23.8.4,7.15,1.07,13.73,1.91,19.81.11.77.21,1.53.32,2.28.2,1.19.41,2.38.61,3.56l.63,3.58c.11.59.21,1.18.32,1.77l.16.88.22.92q.91,3.69,1.81,7.29c.16.59.28,1.21.47,1.78l.63,1.71c.42,1.13.84,2.25,1.25,3.37A66.32,66.32,0,0,0,451,537a62.13,62.13,0,0,0,4.45,5.22,53.71,53.71,0,0,0,4.89,4.66,80.1,80.1,0,0,0,11,7.67l2.94,1.64,2.71,1.5,2.49,1.32,1.07.54,2.77,1.42c.36.19.63.37,1,.54l.06,0,.14.1.32.24.63.47,1.26,1c3.24,2.43,6,4.56,8,6.3,1,.84,1.89,1.7,2.4,2.13.13.13.36.19.48.34s.18.11.25.18a1.61,1.61,0,0,0,.23.22,4.37,4.37,0,0,1,.82,1,5,5,0,0,1,.58,1.31l0,.14v0l0,.19,0,.39c0,.51.1,1,.15,1.57.08,1.07.19,2.15.26,3.28.15,2.26.28,4.62.36,7.08-.66-1.36-1.36-2.69-2-4,2,9.25,3.58,19,4.84,28.88-.73,5-1.32,9.66-1.8,14q-.17,1.62-.33,3.18c-.12.83-.22,1.64-.3,2.44-.13,1.61-.37,3.18-.56,4.73a148.64,148.64,0,0,1-3.2,18,75.24,75.24,0,0,1-7.33,18.65,72.91,72.91,0,0,1-6.74,9.92,79.62,79.62,0,0,1-9.8,10,251.44,251.44,0,0,1-21,18.46c-6.26,5-11.71,9-16.51,12.71-1.18,1-2.36,1.8-3.48,2.67l-1.65,1.31c-.54.44-1.09.82-1.61,1.24-1.06.8-2.07,1.67-3.06,2.46s-2,1.55-2.9,2.34-1.85,1.52-2.74,2.28-1.76,1.53-2.62,2.27c-1.72,1.39-3.35,2.94-5,4.32-1.31.48-2.65.94-4,1.38s-2.81.67-4.25,1l-1.08.21-1,.12-2.06.21a24.39,24.39,0,0,1-4.2.19l-4.3-.16-4.35-.65a37.83,37.83,0,0,1-4.36-1,41.5,41.5,0,0,1-4.34-1.23L374.29,742l-4.22-1.77c-1.4-.54-2.78-1.24-4.14-1.9s-2.72-1.25-4.05-2c-2.67-1.42-5.26-2.74-7.78-4.2l-7.33-4c2.31.57,4.62,1.25,6.9,1.69s4.54,1,6.76,1.35l-1.76-1.19-1.77-1.29-3.52-2.57-3.51-2.72L348.12,722l-1.75-1.43a187.29,187.29,0,0,1-16.84-9.07c-4.62-2.8-8.55-5.34-12.86-8.08s-8.8-5.54-14.61-8.93S289.24,687,280,681.62c-11.43-9.16-19.82-15.2-26.45-19.3a78.52,78.52,0,0,0-8.84-4.72,46,46,0,0,0-7.08-2.58c-4.36-1.17-8-1.57-12-2.43a42.19,42.19,0,0,1-13.93-5.5,491.11,491.11,0,0,1-33.71-45.85l-.57,2.14c-1.86-1.12-3.55-2.18-5.07-3.22s-3-2-4.27-2.94A69.81,69.81,0,0,1,150.53,580c-.89-1.24-1.84-2.54-2.85-4s-2.07-2.92-3.13-4.55c-2.18-3.25-4.54-7.1-7.29-11.69-5.47-9.24-12.19-21.63-20.73-39.64l-3.46,5.66a96.41,96.41,0,0,0-5.56-17.29c-1.1-2.51-2.25-4.88-3.52-7.23s-2.66-4.77-4.15-7.11c-2.94-4.72-6.25-9.47-9.8-15A223.26,223.26,0,0,1,78.63,459.4a169.17,169.17,0,0,1-7.46-17.12c-2.85-7.29-6-15.84-8.94-24.68s-5.95-18.36-9.37-27.13-7.11-17-11.25-23.51a399.3,399.3,0,0,0-11.89-39.23c-4.13-11.53-8.42-21.88-12.49-32.09A254.83,254.83,0,0,1,6.68,264.35a168.33,168.33,0,0,1-5.32-36.17c1.19-16.1-.23-29.73-.92-40.24s-.55-17.76,4.16-20.66L4.53,173c3.17-3.88,6.32-7.72,9.53-11.53l-6.53-1.67a149.64,149.64,0,0,0,1.66-15.74c.35-5.59.55-11.37,1-17,.74-11.32,2.36-22.2,6.6-29.76a180.83,180.83,0,0,1-3.06-21.9,97.06,97.06,0,0,1,.82-22.52c-1.74,5.24-3.48,10.69-5,16.4S6.53,80.92,5.41,86.94l2-1c-.7,5.72-1.11,15.62-1.39,25.76S5.38,132.26,4,139L2.05,122.81c-1.8,18.51-4.69,3-5.6-2.23,1.94-18.74,1.91-25.68,1.11-31.67-.34-3-.86-5.75-1-9.67a59.23,59.23,0,0,1,.19-6.93,74,74,0,0,1,1.61-9.76C-1,60.9-.09,58.87.78,56.85c.42-1,.94-2,1.44-3s1-1.86,1.43-2.67c2-3.21,3.5-4.83,3.33-2.15a52.78,52.78,0,0,1,3.6-7.48c.86-1.35,1.78-2.76,2.74-4.21s2.19-2.84,3.34-4.3,2.58-2.79,3.91-4.2,2.91-2.63,4.39-3.94,3.16-2.38,4.75-3.51,3.3-2.07,4.93-3c6.63-3.77,13.2-5.92,18-7.77a39.71,39.71,0,0,0,5.81-2.47c1.41-.74,2.24-1.53,2.31-2.37,1.66,0,2.31.22,3.8.3a26.44,26.44,0,0,0-9-7.28,51.89,51.89,0,0,0-7.06-2.73,32,32,0,0,0-4.21-1c-1.49-.27-3.05-.51-4.69-.71a40.78,40.78,0,0,0-5.16-.26c-1.79,0-3.67,0-5.61.15A69.47,69.47,0,0,0,16.38-3.5,82.54,82.54,0,0,0-10.95,10Z" transform="translate(36.45 5.9)"/><path class="cls-2" d="M281.7,410.07c.77-24.11-26.52-53.16-43.45-67.3C202,312.49,165.19,314.61,124.12,298.5c-22.22-8.72-43.63-20.85-59.85-38.65-22.34-24.55-33.61-63-39.91-94.07C28.6,186.66,8.68,228.5,4.94,250.51.34,277.65.14,302.76,1,329.69,3.1,391.91-1.18,456-1.65,518.46-2.7,656.45-.31,794.34-.29,932.37c0,76.17,3.24,152.46,6.7,228.44.31,6.89-2.53,16,2.45,20.79,8.54,8.25,40.57,4,51.22,4,17.34,0,34.73-.33,52.05.11,49,1.22,96.66,9.59,145.34,12.69,42.17,2.68,88.61,3.42,129.89-3.44,24.4-4.05,68-12.11,84.59-32,13-15.59-1.7-24.9-17.63-21.79-28,5.46-59,10.23-87.16,2.26-23.81-6.73-50.45-21.94-67.25-40.25-11-12-18.34-28.18-25.28-42.69-6.67-13.91-16.95-27.92-18.09-43.65-1-13.84-.2-28.74-.92-42.9-1.86-36.53.53-73.13,3.54-109.53,1.36-16.55,1.14-34.72,5-50.9,2.2-9.18,7.78-16.22,10.62-25,5.7-17.64,9.65-55.5,2.9-73.12-5.16-13.47-21.89-22.35-28.25-36.94-6.07-13.9-7.35-35.46-3.84-50-25.26,4.09-58.14.2-75.11-21.19,21.62-9,44-20.35,63.63-35.25C286.7,532.11,312.36,472.9,281.7,410.07Z" transform="translate(36.45 5.9)"/><path class="cls-3" d="M256.85,800.66a50.69,50.69,0,0,0-2.31,6.8,6.46,6.46,0,0,0-.38,2.14c.12,0,.87-2.4,1.91-4.93s2.3-5.09,2.84-6.16c.27-.55.38-.75.21-.41s-.6,1.21-1.4,2.95a63.72,63.72,0,0,0-2.44,7q-.27.93-.48,1.89c-.15.63-.31,1.3-.39,1.82-.21,1.11-.44,2.23-.61,3.33-.73,4.44-1.19,8.81-1.5,13.13-.62,8.62-.65,17-.79,25.15.05-10-.19-14.18-.59-15.49s-.95.08-1.32.63-.61.27-.28-4.53c.19-2.41.5-6,1.3-11.22.4-2.62,1-5.69,1.78-9.24.21-.89.44-1.81.67-2.76s.62-2.26,1-3.38A59.72,59.72,0,0,1,256.85,800.66Z" transform="translate(36.45 5.9)"/><path class="cls-3" d="M255.63,880.5l.63,9c-.64,6.71-1.56,16.78-2.25,23s-1.26,8.39-1.34-.63C253.76,902.9,254.62,893.94,255.63,880.5Z" transform="translate(36.45 5.9)"/><path class="cls-2" d="M284.46,829.81c-.84,5.07-1.44,10.58-2,16.35.25-4.36.06-7.51,0-11.09,0-1.79,0-3.68.15-5.82a49.26,49.26,0,0,1,1.06-7.19C283.87,824.56,284.14,827.16,284.46,829.81Z" transform="translate(36.45 5.9)"/><path class="cls-2" d="M-12.87,1115.2c.2-2,.35-5,.42-9.8,1.81,2,2.85,7.94,4.76,26.74,0,4.21.21,9.78.43,15.66.12,2.94.24,6,.36,8.94.06,1.48.12,3,.18,4.4,0,.51,0,.29,0,.8s0,1.08-.08,1.62c-.07,1.07-.13,2.13-.2,3.17a53.24,53.24,0,0,0,.22,11,29.68,29.68,0,0,0,2.06,7.67c.38,1,.86,1.77,1.17,2.43a15.88,15.88,0,0,1,.8,1.44c.15.32.19.47,0,.46s-.42-.19-.85-.59a20.6,20.6,0,0,1-3-5.36c-.12.46,0,2.71,1.79,5.87a24.46,24.46,0,0,0,10.52,9.59c5.28,2.77,12.64,4.48,20.94,5,1,.07,2.09.15,3.15.19l2.75.08c1.44,0,2.86.05,4.29,0,2.85,0,5.69-.16,8.49-.36,2.43-.68-1-1.27-2.38-2.06-.69-.4-.86-.84.48-1.35A54.54,54.54,0,0,1,52.8,1199c1.58-.13,3.17-.25,4.67-.35s2.57-.13,4.44-.14l10.2-.1c6.85,0,13.75,0,20.45.17s13.22.44,19.29.86c3,.24,6,.5,8.74.76s5.47.62,8,.94l9.69-.95,9.75-.8c12.45,1.27,20.29,2.63,27.22,3.91s13,2.58,21.9,4l-13.35-.17c4.68,1.09,5,2,8.11,3.16s9.17,2.44,25.58,4.15l25.29.89,12.7.46c4.88.15,10.62.3,17.94.42,17.43,2.14,41.74,2.94,67.11,1.63,6.34-.35,12.75-.78,19.12-1.39,3.19-.3,6.37-.6,9.54-1l4.75-.55,5.82-.82,2.88-.4,1.44-.19,1.85-.31,7.32-1.21c4.87-.77,9.59-1.69,14.16-2.59s9-1.88,13.16-2.9c2.12-.49,4.11-1,6.12-1.53s3.93-1,5.76-1.59q4.81-1.94,9.78-4.09c3.23-1.45,6.61-2.94,9.78-4.55a138.54,138.54,0,0,0,18.14-10.62,74.77,74.77,0,0,0,15-13.54,42.12,42.12,0,0,0,5.56-8.77,27.53,27.53,0,0,0,2.74-10.94,20.7,20.7,0,0,0-.83-6.23,19.38,19.38,0,0,0-8.75-11.13,14.07,14.07,0,0,0-2.86-1.26,13.09,13.09,0,0,0-2.46-.47c-1.57-.19-3.27-.45-5.05-.71-3.54-.51-7.91-1.31-13.21-1.81-1.37-.14-2.72-.25-4.08-.33-1.6-.08-3.19-.13-4.74-.16h-2.31c-.34,0-.86,0-1.31,0l-1.37.08c-1.81.1-3.57.23-5.27.38l-1-.08-.51,0-.7,0-2.76.19-5.44.37c-.46,0-.89,0-1.36.1l-1.48.21-2.94.4-5.77.8c-1,.16-1.82.21-2.68.3l-2.56.24-5,.48-1.23.11-1.13,0-2.23.08-4.39.17c-.71,0-1.46.08-2.13.06l-2-.07-3.89-.12-1.91-.06-.94,0-.9-.1-3.52-.4-3.42-.38c-.26,0-.62-.06-.79-.09l-.47-.09-.94-.17-3.62-.64c-4.37-.93-8.46-2-12.15-3.08-1.85-.57-3.62-1.1-5.31-1.65s-3.33-1-4.89-1.64c-6.29-2.18-11.75-4.26-17.44-6.8a115.31,115.31,0,0,1-18.37-10.25,52.21,52.21,0,0,1-7.36-8.18c-.84-1.36-.41-1.38.86-.48,2.6,1.76,8.91,7.06,16.67,11.79a126.53,126.53,0,0,0,22.06,11.11c5.58,2,7.68,2.18,2.42-1.05-3.77-1.87-7.55-3.82-11.2-6-1.86-1-3.62-2.23-5.45-3.34s-3.57-2.33-5.27-3.59a121.79,121.79,0,0,1-10-7.82l-2.34-2.07-2.24-2.14c-.77-.7-1.42-1.46-2.14-2.18l-1.06-1.1c-.35-.36-.63-.71-.95-1.07-5-5.65-9.48-13-13.7-21-2.12-4-4.19-8.28-6.32-12.67l-1.61-3.33-1.81-3.64c-1.25-2.38-2.5-4.71-3.71-6.89-2.43-4.39-4.72-8.45-6.58-12.27a56.72,56.72,0,0,1-4.17-10.67l-.31-1.22-.22-1.17c-.19-.79-.2-1.52-.32-2.28,0-.15-.05-.44-.07-.72l-.06-.83-.11-1.67c-.06-1.12-.12-2.25-.17-3.39-.19-4.57-.24-9.31-.27-14.17s-.05-9.86-.19-15l-.12-3.87-.18-3.84c-.1-2.35-.23-4.69-.31-7-.33-9.39-.37-18.76-.18-28.09-.87-9.41-2-6-3-5.17-.47.44-.86.24-1.11-2.52a165.29,165.29,0,0,1,0-18c.73,13.06,3.62-1.28,4.58-15.25-1.28,15.25-1-.41-1.59-2.2l-1.11,11.07c-2.81,3.82-2-9.44-.2-27,.47-4.41,1-9.08,1.47-13.82.51-4.95.87-9.86,1.17-14.53.56-9.37,1-17.76,1.27-23.93.82-2.73,1.18-3.21,1.15-2.5s-.33,2.74-.63,5.2c-.63,4.9-1.1,11.75-.3,12.82,1.21-.17,2.59-3.19,4.38-10,.93-3.38,1.94-7.74,3.48-12.69a22.31,22.31,0,0,1,1.09-3c.42-.94.94-2,1.61-3.29,1.32-2.59,3.43-6,5.92-11.15a75.58,75.58,0,0,0,2.69-7.52l.93-3.48c.32-1.17.52-2.23.78-3.35,1-4.39,1.68-8.54,2.31-12.65,1.2-8.17,2-16.06,2.35-24a164.43,164.43,0,0,0-.41-24.13c-.06-.52-.09-1-.16-1.56l-.23-1.63-.47-3.24c-.2-1.1-.47-2.27-.7-3.4a35.46,35.46,0,0,0-.88-3.52c-.37-1.23-.76-2.46-1.16-3.68s-1.09-2.67-1.67-4-1.27-2.42-1.93-3.62-1.36-2.17-2.05-3.26a93.69,93.69,0,0,0-8.27-10.22c-2.61-2.88-5-5.39-7.07-7.71a48,48,0,0,1-4.82-6.23l-.45-.68-.32-.64a7,7,0,0,1-.59-1.21,26.43,26.43,0,0,1-1.09-2.93,52.62,52.62,0,0,1-1.83-7.92c-.14-.7-.21-1.46-.31-2.19s-.2-1.48-.27-2.24-.16-1.51-.2-2.28l-.08-1.15,0-.58v-1.09c0-1.64-.09-3.27-.09-4.95s.23-3.5.34-5.27c.52-3.67,1.26-7.47,2.06-11.48,1.58-7.92,3.33-16.42,5-24.09H269l-.35,0-.72.09-2.87.4-5.83.81L247,608.46l-6.23.82-6.13.65-3.09.33c-1,.06-2,0-3,0l-6,0c.77.24.81.44.28.6a4,4,0,0,1-.51.11l-.57.09a8.82,8.82,0,0,1-1,.08c-.79,0-1.83,0-3,0s-2.39-.26-3.77-.43c-.69-.07-1.37-.21-2.08-.35l-2.16-.44c-1.47-.29-2.89-.76-4.36-1.12l-4.1-1.37c-1.24-.54-2.47-1-3.56-1.44,5.18,1.34,3.8,0,.34-2.35-.41-.32-.86-.64-1.34-1l-.74-.5-.68-.59c-.47-.39-1-.79-1.48-1.18l-.38-.29-.34-.34-.68-.66a36.22,36.22,0,0,1-4.82-5.47l-8.74,33.74c2.21-.84,4.26-1.62,6.08-2.37,8.94-4.48,13.62-8.08,19.56-12.23,3-2.09,6.25-4.32,10.48-7.06s9.43-5.94,16.15-10.22c-6.64,2.91-13.31,5.48-20,7.8-2.93,1.48-7.91,4.19-14.06,7.33s-13.47,6.68-21,10.08L182,598.15a37,37,0,0,0,10.29,8c.48.25.91.55,1.41.77l1.47.65a25.53,25.53,0,0,0,2.87,1.19c1,.34,1.87.7,2.78,1l2.66.75c1.94,1.6,7.22,3.66,14.92,4.51l3.05.31.19,0h1l1.38,0,2.79,0,2.85,0c1-.06,2-.16,3-.25,2-.18,4.05-.33,6.15-.56,4.24-.5,8.58-1,12.92-1.62l3.28-.44,3.19-.47,3.2-.47,1.59-.22,1,.24c-1,4.88-2,10.27-2.95,15.42s-1.75,10.19-2.38,14.8c-.09,1.12-.11,2.2-.16,3.29a30.59,30.59,0,0,0-.07,3.15c0,1,.06,2,.09,3,0,.46,0,.92.05,1.38,0,.27,0,.53.07.79.15,2.08.34,4,.54,5.71s.41,3.2.54,4.47a26,26,0,0,1,.26,3c0,1.5-.37,2.08-1.36,1.32a72,72,0,0,1-1.38-10.57c-.05-.6-.09-1.19-.14-1.78l-.07-1.76c-.08-.81-.09-3.18-.13-5,0-1,0-2,.09-3s.11-2,.16-3c.24-2,.58-4.1.88-6.13,1.38-8.24,2.88-16.53,4.26-23.49l-.64-.2a3.18,3.18,0,0,0-.33-.09l-.53.08-2.11.33-4.16.68-8.34,1.28-8.14,1.2c-2.66.36-5.21.63-7.76,1a31.53,31.53,0,0,1-3.7.23l-3.61.14-1.71.06H217.9c-1.54,0-2.9-.09-4.35-.14s-2.86-.19-4.3-.33a63.64,63.64,0,0,1-17.13-4,42.34,42.34,0,0,1-15.82-10.81l-3,11.42.29-.14c16.7-6.13,27.87-10.61,37.68-14.73s18.27-8,28.93-14.41a148.81,148.81,0,0,0,14.88-11.56l2.8-2.53,2.49-2.44c1.59-1.56,3-3.08,4.3-4.54a158.21,158.21,0,0,0,13.15-17.28,263.65,263.65,0,0,0,16.9-26.87,148.69,148.69,0,0,0,9.89-21.45c2.19-9.35-2,4,.22-5.35a134.57,134.57,0,0,0,3.67-18.86c.27-3.14.58-6.19.58-9.07a75.16,75.16,0,0,0-.21-8c-2-2.23-1.31,9.81-4.3,25.73a134.76,134.76,0,0,1-7.28,25.14,129.16,129.16,0,0,1-11.62,22.41c1.74-3.5,2.7-5.7,3.72-8.27s2.34-5.36,4.45-10.22a59.5,59.5,0,0,1,2.83-6.71c.48-.76.68-.59,1.07-1.22a129.83,129.83,0,0,0,4.33-18.07c-.47-.3-1.31.4-1.61-1.81a17.1,17.1,0,0,1-.1-2.26c0-1,.1-2.19.12-3.72.1-3,.42-7.3.36-13.3a120.54,120.54,0,0,0,1.25-14.4,105.91,105.91,0,0,0-7.5-29.39c-.71-1.85-1.55-3.47-2.26-5s-1.37-2.81-2.05-3.91a33.62,33.62,0,0,0-3-4.55c-.68-.73-1-.73-.94.09a27.06,27.06,0,0,0,1.5,5.19c.49,1.31,1,2.9,1.63,4.74l1,2.95c.33,1.06.69,2.19,1.06,3.38a148.05,148.05,0,0,1,4.6,18.1l1.55,2.37,1.44,2.44a114,114,0,0,1-.79,29c-.19,1.19-.36,2.38-.57,3.56l-.74,3.52-.37,1.76-.46,1.74-.91,3.47a120.34,120.34,0,0,1-4.76,13.44c-1.28,2-1.45,1.37-1-.66.21-1,.61-2.39,1-4s.89-3.41,1.24-5.34c1.71-7.65,2.44-16.66,1.38-17.1-1-4.09-2.24,5.71-6.51,18.1a131.65,131.65,0,0,1-8.42,19.22c-.87,1.53-1.69,3.06-2.54,4.52L273.09,522l-2.53,3.8c-.79,1.21-1.63,2.3-2.36,3.33-1.29,2.3-2.27,3.78-2.75,4.74s-.59,1.31-.35,1.2a8.78,8.78,0,0,0,1.65-1.61l1.41-1.65c.5-.64,1-1.36,1.64-2.14A112.87,112.87,0,0,0,277.46,518c1.18-2.2,2.45-4.36,3.42-6.48.52-1.05,1-2.07,1.48-3s.83-1.91,1.2-2.78a132.22,132.22,0,0,1-11.62,28.73,82.72,82.72,0,0,1-8.72,10.62c-2.9,3-5.34,4.87-5.55,4.39-1.81,1.57-2.88,2.07-3.59,2.17a3.61,3.61,0,0,1-1.56-.27c-1-.2-2.38.51-8.42,6.31l-3.2,2.8L238,562.87c-1.78,1.5-3.36,2.74-4.7,3.83-2.66,2.2-4.52,3.64-5.68,4.72-2.39,2.09-2.19,2.56-1.76,2.89s1.08.56-.47,2.16-5.32,4.65-14.15,10c2.92-.64,8.89-3.29,16.25-7.58,3.67-2.17,7.7-4.73,11.82-7.68,2.08-1.44,4.13-3.07,6.26-4.66l3.13-2.53c1.05-.85,2.1-1.72,3.12-2.63,4.19-3.53,8.16-7.44,12-11.34,1.84-2,3.73-4,5.43-6,.86-1,1.73-2,2.56-3l2.39-3A181.64,181.64,0,0,0,288,517.66a132.77,132.77,0,0,0,7.1-17.94c1-1.83,1-.86.57,1.22-.21,1.05-.66,2.32-1.09,3.68s-.9,2.76-1.4,4a34.24,34.24,0,0,0-1.44,3.8c.14-.24.52-1.05,1.25-2.64.36-.81.85-1.78,1.35-3s1.08-2.72,1.77-4.44A116.93,116.93,0,0,1,278.59,538a155.08,155.08,0,0,1-29.1,30.39,198.83,198.83,0,0,1-32.91,21.27,271.45,271.45,0,0,1-28.78,12.83c-.44-.55-3.67.26-7.42,1.18a91.72,91.72,0,0,1-10.44,2.22l-1.65.15,1.07,2.11c1.14,2.26,1.15,3.27-1.57,1.25l-2.31-1.73,3.7-3.63c.9-.88,3.52-2.48,7.76-4.89-3.05,1.27-5.83,2.29-8.46,3.2L162,604.59l4.39,5.93a55.32,55.32,0,0,0,31.86,21.92l3.59.72,1.76.36,1.76.25,3.43.5c1.13.14,2.26.22,3.36.33,2.23.26,4.35.33,6.44.44l1.52.07h3.51c1.55,0,3.08-.11,4.59-.15l4.45-.33c1.46-.18,2.9-.29,4.3-.48l2.09-.3,1-.14c.07,0,.2-.06.23,0l-.06.25-.11.51a78.58,78.58,0,0,0-1.65,17.11l0,2.08c0,.3,0,.78.06,1.23l.08,1.35q.06,1.35.21,2.7c.09.9.15,1.8.27,2.7a85.58,85.58,0,0,0,1.94,10.87c.44,1.83,1,3.67,1.62,5.53l1,2.79c.42,1,.88,1.91,1.33,2.87a54.3,54.3,0,0,0,7,10.3c2.65,3.14,5.5,6,8.32,8.89a102,102,0,0,1,8,8.71c-1.62-2.56-.91-2.21.43-1.08s3.05,3.1,3.67,3.55a21.6,21.6,0,0,1,1.12,2.51c.32.83.52,1.73.77,2.53a19.36,19.36,0,0,1,.55,2.46c.14.8.3,1.56.41,2.31.16,1.54.33,2.92.41,4.21s.08,2.49.1,3.55c0,2.15-.17,3.86-.31,5.19a16.7,16.7,0,0,1-.66,3c-.95,2.7-2.14.84-3.21-.16-.54-.5-1-.81-1.47-.27s-.73,1.88-1.08,4.74-.68,7.24-1.3,13.75c-.17,1.63-.35,3.4-.61,5.3s-.52,4-.84,6.14a133.69,133.69,0,0,1-2.92,14.39c-.11.41-.23.92-.34,1.24s-.22.71-.32,1.06l-.36,1.06c-.14.36-.27.72-.4,1.06-.55,1.43-1.14,2.84-1.72,4.22-1.19,2.76-2.28,5.36-2.94,7.39a11.13,11.13,0,0,0-.84,4c.11.54.57.13,1.45-1.13,3.22-6.47,7-11.16,9.16-16.47a82.61,82.61,0,0,0,5-23.17c.53.24,1.64-7.46,2.28-12.93.16-1.36.33-2.59.49-3.51a4.49,4.49,0,0,1,.43-1.72c.31-.32.73,1.18,1,5.88a249,249,0,0,1-3.76,29c-.45,2.09-.86,4.16-1.39,6.09l-.36,1.45c-.14.46-.28.91-.41,1.37-.29.9-.6,1.8-.94,2.69-1.36,3.59-3.09,7.11-4.66,10.82-.79,1.85-1.53,3.75-2.16,5.7a42.7,42.7,0,0,0-1.49,6c-.73,3.88-1.24,7.78-1.64,11.75-.81,7.93-1.2,16.17-1.9,25.28.32,4,.63,8,.86,12-.57,7-1.17,19.27-1.72,32.14s-1.05,26.38-1.91,36.06c-.62,14.07-.8,20.87-1.2,23.1s-.88-.1-1.35-4.28-.94-10.21-1.32-15.32-.71-9.32-1.11-9.85c-.84,15.6-1.25,31.27-.86,47,.19,1.67.37,3.31.55,4.94s.28,3.19.39,4.77c.21,3.17.33,6.3.4,9.38.14,6.18.09,12.2.14,18.1,0,3,.06,5.86.19,8.84a57.85,57.85,0,0,0,1.27,9.35,92.66,92.66,0,0,0,5.6,16.55c2.2,5.11,4.56,9.88,6.72,14.47l1.59,3.41,1.51,3.4c1,2.38,2.11,4.78,3.24,7.2a157.74,157.74,0,0,0,7.63,14.63,92.85,92.85,0,0,0,10.47,14.37q-2-1.7-3.81-3.47c-1.06-1.41-2-2.61-2.71-3.63s-1.37-1.83-1.88-2.47c-1-1.28-1.59-1.83-1.83-1.78-.48.09.35,2.58,2.23,6.34a78,78,0,0,0,8.8,13.72l1.5,1.84,1.53,1.7c1,1.14,2,2.28,3.09,3.3s2.06,2.08,3.09,3l3,2.66a156.66,156.66,0,0,0,13.12,8.82c5.72,2.57,13.75,6.91,23.78,11.34,5,2.22,10.51,4.49,16.47,6.57l4.56,1.51,4.72,1.41c1.62.44,3.29.83,5,1.26l1.25.31,1.24.25,2.49.49,1.25.24.63.13.43.07,1.57.23,1.59.24,1.6.17c2.13.25,4.29.38,6.45.47a107.33,107.33,0,0,0,12.94-.32,199.63,199.63,0,0,0,25.4-4c3-.65,4.47-.23,4.25.13-.09.19-.58.35-1.4.46s-2,.17-3.47.33a9.77,9.77,0,0,1,5.81,1.67,5.82,5.82,0,0,1,2,2.51,5.62,5.62,0,0,1,.11,3.66c-.78,2.59-2.83,4.8-4.95,6.62a37.84,37.84,0,0,1-7,4.62c2.15,1.13,1.73,2.49-.14,3.77a31.81,31.81,0,0,1-9,3.47c-3.78,1-8,1.84-12.12,2.6s-8.17,1.48-12.22,2.4l-6.87,2.55-3.33,1.18-.43.15-.55.15-1.14.31-2.32.63-2.43.63c-.88.2-1.9.41-2.88.62-2,.4-4.12.87-6.44,1.25-4.64.81-10.06,1.61-16.81,2.31-17.24.17-32.73-.13-47.26-.49s-28.11-.9-41.45-1.64c-26.61-1.47-52.31-4.49-83.32-9.59-5,1.08-17.19,1-24.43,1.44s-9.48,1.43,5.25,4.54c-8.09-1-16.08-1.81-24-2.57s-15.8-1.32-23.6-1.75c-15.63-.86-31-1.3-46.26-1.89-4.1-.09-7.85.06-11.67.12s-7.55.11-11.27,0l-2.78-.07-1.38,0-.68,0-.58,0c-1.51-.09-3-.22-4.49-.39a35.77,35.77,0,0,1-8.59-1.88,10.73,10.73,0,0,1-3.71-2.23,7,7,0,0,1-2-3.89c-.51-2.94,0-5.91.3-8.79.07-.72.14-1.44.17-2.17,0-.18,0-.36,0-.54v-.82l0-1.49c0-2-.09-3.9-.13-5.86q-.15-5.86-.31-11.78c-.68-4.36-1.41-9-2.08-13.29C3.32,1113.08-12.66,1047.42-12.87,1115.2Z" transform="translate(36.45 5.9)"/><path class="cls-2" d="M312.12,492.47a142.19,142.19,0,0,1-11,31.25l2.75-3.76A36.05,36.05,0,0,0,308.73,508c.43-1.71.72-3.6,1.26-6l.45-1.94c.14-.69.3-1.43.46-2.21C311.22,496.28,311.71,494.53,312.12,492.47Z" transform="translate(36.45 5.9)"/><path class="cls-3" d="M23.8,578c-1.27-26.89-3.61-58.21-5.33-40.31-.5,35.78,2.08,62.68.57,98.5C21.59,636.13,22.46,591.34,23.8,578Z" transform="translate(36.45 5.9)"/><path class="cls-2" d="M244,894.23c-.82,13.88-1.43,27.82-1.58,41.84.76-3.09,1.56-6.16,2.37-9.22,1.22-17,.93-19.36.21-20.4S243.31,905.73,244,894.23Z" transform="translate(36.45 5.9)"/><path class="cls-3" d="M-.75,438.86c-1.29,0-2.3-9.07-2.19,8.86l1.46,27C-2,470.2,1.45,429.92-.75,438.86Z" transform="translate(36.45 5.9)"/><path class="cls-3" d="M-4.71,344.77l-3.78,4.52c.81,13.33,2.41,22.24,1.6,35.63.44-8.92,1.07-13.37,1.61-18.39A146.74,146.74,0,0,0-4.71,344.77Z" transform="translate(36.45 5.9)"/><path class="cls-3" d="M-8.52,537.5a305.85,305.85,0,0,0,.31-50.62c-.75-12.39-1.31-23.66,1.87-43.76.4-29.14-.57-39.2-1.94-40.35s-3.23,6.64-5,13.3c-.61,22.39,4.54.09,4.76,36-.66,11.21-1.33,23.56-2.09,33.67s-1.6,18-2.77,20.2c-.27,14.71-.07,22,.27,25.21s.88,2.39,1.47.71C-10.47,528.49-9.07,521.77-8.52,537.5Z" transform="translate(36.45 5.9)"/><path class="cls-3" d="M-13.69,344.94c.06,4.42.15,8.83.15,13.27s0,8.85,0,13.29q1.33-6.64,2.56-13.31C-11.83,353.75-12.77,349.34-13.69,344.94Z" transform="translate(36.45 5.9)"/><polygon class="cls-3" points="16.69 543.34 18.2 565.79 18.72 525.36 16.69 543.34"/><path class="cls-3" d="M-26.76,483l-.37,18.2c.75,13.62,2,22.69,3.07,9.08C-24,487.63-26,492.15-26.76,483Z" transform="translate(36.45 5.9)"/><path class="cls-2" d="M.68,943.85c2.9-27.86,5.54-60,7.58-95.13S11.89,775.61,13,736c-1.34-15.09-2.62-30.82-3.66-48.57L12,637.93c-.1-24.65-.36-51.53-1.06-76.13-.36-12.3-.82-24-1.42-34.64s-1.37-20-2.26-27.79c.79-9,1.46-9,2.3-17.95-.86-17.81,1.6-53.78-.26-71.67C11,387.2,12.91,387.08,15,373.38c-.4-12.25-.55-25.39-.78-39-.05-3.35-.1-6.74-.15-10.14s0-6.71,0-10.08c.05-6.73.25-13.46.61-20.14a357.31,357.31,0,0,1,4.23-39.1l.18-1.16c.07-.36.13-.73.21-1.08.14-.72.31-1.44.48-2.15.36-1.45.71-2.88,1.06-4.3.74-2.9,1.47-5.9,2.15-9.27.07-.35.14-.68.21-1,1.38-.3,2.35-1.6,3.14-4a39.18,39.18,0,0,0,1.54-10.44,28.6,28.6,0,0,0-.32-5.07c.7,2.41,1.66,5.48,2.76,9.43a97.89,97.89,0,0,1,2.88,13.23c.08.28.17.55.25.84a68.33,68.33,0,0,0,3,7.86l.88,1.75c.08.16.12.26.24.46l.37.64.74,1.28.75,1.27,1.52,2.29c1.05,1.54,2,3.11,3.15,4.6l3.37,4.44c1.15,1.45,2.41,2.84,3.61,4.25.61.68,1.2,1.41,1.83,2.06l1.87,1.93c1.22,1.3,2.51,2.51,3.78,3.71A130.36,130.36,0,0,0,74,288.91a143.86,143.86,0,0,0,28.17,14.92c8,3.12,14.19,4.72,17.67,5.17-.14.45-4.79-.42-6.73-.28-1,.09-1.26.48,0,1.51s4.17,2.69,9.82,5.07c1.15.32,2.58.8,4.09,1.22l4.54,1.23a24.52,24.52,0,0,0,5.25,1.14l3.25,1,2.66.84,3.2.95c2.3.69,4.92,1.47,7.69,2.22L158,325.1l4.41,1.18,17.26,4.57,3.77,1c1.22.31,2.37.61,3.42.92,2.12.59,4,1,5.52,1.35,4.85,1.2,6.47,1.3,5.57.42-5.42-2.69-8.82-4.39-10.2-5.62s-.82-1.9,1.32-2.12a29.59,29.59,0,0,1,4.35,0c1.82.09,3.89.44,6.32.8l1.86.31c.63.13,1.27.28,1.93.43l4.14,1c1.47.31,2.9.84,4.43,1.3s3.13,1,4.71,1.57c3.13,1.28,6.55,2.52,9.86,4.26l2.55,1.25c.86.42,1.72.85,2.54,1.35l5.09,3c3.43,2,6.76,4.36,10.06,6.76s6.53,4.92,9.63,7.53a158,158,0,0,1,16.87,16.28,100.24,100.24,0,0,1,11.81,16.11,51.35,51.35,0,0,1,5.67,21.61,52.23,52.23,0,0,0-3.47-20.92A92.69,92.69,0,0,0,278,371a144.39,144.39,0,0,0-12.9-16.85,181.52,181.52,0,0,0-15.93-15.95c3,3.8-4.09-2.39-10.62-6.8a47.89,47.89,0,0,0-4.41-2.86,26.63,26.63,0,0,0-2.68-1.47c-.93-.34.22.71,4.9,4.45,3.75,2.94,7.75,5.53,11.2,8.68a188.42,188.42,0,0,1,21.14,25.13,251.32,251.32,0,0,0-18.25-19.19,147.35,147.35,0,0,0-12.2-10.43l-3.29-2.55c-1.13-.82-2.3-1.58-3.46-2.37L228,328.48c-1.17-.77-2.4-1.43-3.6-2.14a129.87,129.87,0,0,0-28.34-12.28c-4.33-1.34-8.32-2.25-11.78-3a77.6,77.6,0,0,0-8.67-1.29c-7.6-2.19-13.79-4-19-5.8s-9.54-3.45-13.37-5.12c-1.94-.8-3.72-1.68-5.46-2.52s-3.45-1.64-5.1-2.56l-5.1-2.71c-1.73-1-3.55-1.94-5.45-3a167.16,167.16,0,0,1-24.65-13,124.53,124.53,0,0,1-21.76-17.58l-1.22-1.23L73.3,255c-.76-.86-1.58-1.68-2.27-2.56-1.41-1.77-2.91-3.42-4.19-5.3l-2-2.73c-.64-.93-1.24-1.9-1.87-2.84l-.92-1.42-.47-.71-.11-.17-.15-.26-.29-.5c-.77-1.35-1.55-2.69-2.31-4l-1.16-2c-.38-.67-.76-1.54-1.14-2.3l-2.27-4.68c-.37-.79-.78-1.51-1.11-2.37l-1-2.49q-1-2.47-2-4.94l-.51-1.23L49,213.08l-.93-2.67q-.93-2.66-1.84-5.29l-.23-.65-.22-.74-.42-1.46c-.29-1-.57-1.94-.85-2.91q-.85-2.88-1.69-5.73c-.94-.6-1.79-1.22-2.68-1.81A16.45,16.45,0,0,1,37.71,190l-2-1.85a9.07,9.07,0,0,1-.93-.93l-.78-.94-1.52-1.87c-.48-.62-.84-1.27-1.26-1.89s-.82-1.25-1.18-1.88l-1-1.9a88,88,0,0,1-4.72-13,14.93,14.93,0,0,1,.35,5.52,26.43,26.43,0,0,1-3.08,9.38,21.91,21.91,0,0,1-4.28,5.61c-3,2.76-6.08,3.93-10.61,5.42l-.06,0c-.44,6.62-1.82,11.05-3.15,16.09S.61,217.69-1,222.7-4.16,232.83-5.57,238c-.69,2.61-1.38,5.22-1.88,7.87-.28,1.31-.52,2.65-.72,3.94-.15,1-.3,1.94-.46,2.9-2.2,14.48-2.79,27.3-1.91,31.88-1,10.43-1.68,19.12-2.29,26.57s-1.19,13.66-1.79,19.14c-1.26,10.63-2.78,18.48-4.18,27.4-.7,15.49-.78,23.26-.36,29.88s1.18,12.15,1.73,23.24c-1.14,31.27-2.71,28-4.16,25.83-.73-1.09-1.45-1.9-2.12,2s-1.29,12.61-1.8,30.64c-.7,13.52-.57,29.35.1,41.81.32,6.25.78,11.55,1.26,15.32s1,6,1.47,6c-2.12,31.58.16,71.88-2,94.53,6.23,49-1.94,112.43,3.95,170.34,0,32.19.81,60.78,1.88,88.91.56,14.06,1.13,28,1.7,42.23s1.2,28.91,1.92,44.13C-9.36,986.82-3.93,978,.68,943.85Z" transform="translate(36.45 5.9)"/><path class="cls-4" d="M83.56,735.37c-3.46-.58-6.93-1.09-10.43-1.43-10.58-1-21.4-.55-32.08-.55-9,0-20.65-.22-24,10.18-3.62,11.24-.73,28.43-1,40.31-.2,7.74-1.43,22.74,7.58,26.47,10.71,4.43,26.62,3.46,38.47,2.87,20.94-1,47.67-1.62,56.32-24.59,2.81-7.49,6.08-14.8,9.59-22,3.68-7.52,9.41-12.16,3.09-17.4-7.21-6-18-10-27.36-10.84C97,737.81,90.28,736.48,83.56,735.37Z" transform="translate(36.45 5.9)"/><path class="cls-4" d="M89.82,745.5a47.09,47.09,0,0,0,8.18-.07,33.84,33.84,0,0,0,4.58.93l.93.13.8.09c.54.06,1.07.13,1.59.17,2.1.21,4.13.37,6.2.62a32.88,32.88,0,0,1,6.34,1.32,20.29,20.29,0,0,1,6.54,3.5l1.17.82a5.47,5.47,0,0,1,.54.41,2.39,2.39,0,0,1,.8,1,2.17,2.17,0,0,1,0,1.26,4.89,4.89,0,0,1-.19.62l-.13.3c0,.08-.18.33-.26.49s-.48.88-.75,1.35l-.92,1.58c-.64,1.09-1.31,2.22-2,3.49L121.48,767c-.61,1.15-1.26,2.32-1.94,3.54,1.06,2.48-1.32,7.26-3.85,12.69l-1.87,4.08c-.54,1.17-1.13,2.29-1.71,3.35-1.17,2.1-2.31,3.94-3,5.65a24.77,24.77,0,0,0-2.91,4.33c-.33.93.19,1.24,2,.28a11.53,11.53,0,0,1-5.38,2.85,15.17,15.17,0,0,0-4.78,2c.45-.68.89-1.33,1.29-2-1.88.46-4,.53-6.36,1.46-.78.71-1.59,1.38-2.43,2.06a36.58,36.58,0,0,0-9.16,1.51A30.17,30.17,0,0,1,71.48,810c5.26.67-2.33,1-1.69,2-1.25-.46-6.12-.5-4.48-1-6.83-.07-13,2.62-16.91.65l-2.47.62c-4.25.8-7.61-.41-11.33-1.2l-.63.68a13.11,13.11,0,0,1-2.25-.13,17.23,17.23,0,0,1-2.55-.52,13.43,13.43,0,0,1-2.39-.85,7.3,7.3,0,0,1-1.76-1,14.12,14.12,0,0,1-2.06-1,11,11,0,0,1-1.81-1.44,15.18,15.18,0,0,1-2.92-4.32,38.41,38.41,0,0,1-3-10.88c.39-3.54.12-4.53-.37-5.46a9.69,9.69,0,0,1-1.35-4.84c.46-3.93-1.06-10.85-.1-13.38.38,5.6,2.58,6.25,2.3,12.17.32-1.13.6,1.35.78,3.49s.39,3.89,1,1.27c-.68-5.79-1.21-12.09-1.53-18.32s-.44-12.27-.48-17.56c.5.27.87-.4,1.34-1.56.24-.57.41-1.3.7-2.07.12-.39.25-.8.39-1.22s.33-.82.49-1.25a13.35,13.35,0,0,1,3.06-4.58,15.53,15.53,0,0,1,3.78-2.49l.45.41a42.8,42.8,0,0,1,5.3-1c1.9-.28,4.12-.55,7.22-.92,7.46-.14,14.86-.65,21.12.59a74.65,74.65,0,0,0,14,.67,55.92,55.92,0,0,0,10.33-.79,59.89,59.89,0,0,0-16.25-2.35c-5.18-.15-10-.23-14.2-1.9,7.93.57,8.45-.19,14.69-1l-3.25-.82,2.69-.32c-1.34-.8,2.26-1.24,1.9-2-3.3-.19-6.57-.28-9.8-.31,5.2.73,1.73,1.48.23,2.25L54.73,728c1.15.35,4.18.66.59,1.11-2-.15-4.58.31-6.76-.19l3.87-1.61a20.47,20.47,0,0,1-8.18-.23,20.33,20.33,0,0,0-8.33-.23c-.65-.54-1.36-1.05-2.07-1.57a50.1,50.1,0,0,0-6.72.91l.69-.7a28.28,28.28,0,0,0-9.22,2.93,12.16,12.16,0,0,0-4.24,4.08,4.82,4.82,0,0,0-.73,2.18c-.34.45-.67.9-1,1.35s-.53.93-.78,1.39-.48.91-.68,1.34-.33.86-.48,1.27-.3.79-.44,1.16-.2.62-.3.9a8,8,0,0,1-.53,1.31l.07-2.11c.09-.79.26-1.67.43-2.51-.35.71-.68,1.42-1,2.14l-.68,1.84c.52-1.24.44-.41.27.84a18.07,18.07,0,0,0-.15,3.3c-.16,1-.3,1.78-.42,2.47s-.16,1.24-.22,1.71c-.13.92-.21,1.5-.27,2-.14,1-.4,1.6-.85,3.89.55,4.79-.34,10.31,1,10.5-.2,4.08-.13,8.19-.13,12,0,.92,0,1.9,0,2.78s0,1.76-.08,2.76c-.09,2-.16,4.05-.16,6.14.28,1.23.58,2.47.92,3.73a30.23,30.23,0,0,0,.56,7.23,23.46,23.46,0,0,0,2.48,6.72,18.66,18.66,0,0,0,8,7.77,17.42,17.42,0,0,0,2.19.89l1.86.62,2,.54-1,.12c1,.14,2.07.26,3.07.3s2,.1,3,.09a28.4,28.4,0,0,0,9.31,1,58.14,58.14,0,0,1,9.89.3,35.17,35.17,0,0,0,10.24-.79,16.47,16.47,0,0,0,5.47-2.42c4.22-1,9.73-.16,13.69-.45l-2.51.84c1.11.14,2.23.26,3.35.37,2.84-.45,4.37-.61,6.11-.86a38.85,38.85,0,0,0,7.4-1.88A21.61,21.61,0,0,0,99,813.5a8.13,8.13,0,0,0,2.64-1.94,15.7,15.7,0,0,0,1.32-1.88,10.06,10.06,0,0,1,1.77-2,35.09,35.09,0,0,0,9.26-4.76l-.43-.1a37.09,37.09,0,0,1,3.26-5.7,35.22,35.22,0,0,0,2.39-3.71l.75-1.41c.25-.52.48-1.09.75-1.7s.5-1.23.76-1.89.53-1.36.82-2.12l-1.25.14c2.76-3.62,1.88-6,4.27-11.19.55-1.28,2.14-3.66,3.74-6.31.81-1.37,1.57-2.64,2.3-3.94a17.48,17.48,0,0,0,1.72-3.88,16.86,16.86,0,0,0,2-3.58,8.21,8.21,0,0,0,.55-3.66,7.25,7.25,0,0,0-3.69-5.11,44.28,44.28,0,0,0-5-2.5c-1.69-.74-3.43-1.52-5.33-2.48a17,17,0,0,0-6-2.38c-1.64-.4-2.76-.66-3-1.69.31.06.6.16.91.24-.45-.78-.92-1.53-1.42-2.29l-.55,1.22a28.64,28.64,0,0,0-5.22-1.41c-.92-.22-1.85-.38-2.68-.64a7.39,7.39,0,0,1-2.16-1c-2.43.53-4.91,1-7.42,1.38a36,36,0,0,1,5.64.89l-.15-.39c.93.09,2.53.21,4.17.34a14.7,14.7,0,0,1,4.34.91c-.87,0-1.76,0-2.62,0,2.88.75.34,1-.48,1.09a20.35,20.35,0,0,0-3.23-.49,7,7,0,0,0-1.76.09,12.13,12.13,0,0,1-4.07.25c-1-.31-2.94-.77-2.16-1-2.73-.19-9.58-2.38-10-1.11-.22-.1-.3-.17-.49-.27C83.73,739.89,86.26,742.68,89.82,745.5Z" transform="translate(36.45 5.9)"/><path class="cls-5" d="M49.94,185.61C44.08,228.47,69.5,273.72,109.15,291c27,11.8,57.83,11.15,86.11,19.52,64.31,19,108.22,87.18,105.52,154.2-2.45,60.68-45.85,139.37-109.86,152.54,26,8.86,51.36,7.38,76.45-2.82,14.89-6.05,28.83-15.61,37.33-29.25,1.38-2.21,2.64-4.65,2.66-7.26s-1.6-5.41-4.17-5.91a7.77,7.77,0,0,0-4.8,1.05c-13.6,6.7-20.66,21.88-25,36.39-18.46,61.18,13.09,111.41,68.42,138.64,35.06,17.26,71.86,16.41,108.86,5.43,47.2-14,79.31-54.92,87-102.85,7.09-44.06-2.41-110.4-48.24-130.6-12.48-5.5-26.48-6.87-40.08-5.91-38.44,2.71-75.21,24.65-95.15,57.61S332,648,349.14,682.46c2.21,4.43,4.9,8.93,9.19,11.4,3.26,1.88,7.11,2.4,10.86,2.57,40.3,1.87,73.69-31.52,93.52-66.66,15.61-27.67,26.59-60.33,23.15-92.46-3.53-33.09-22.58-55-12.61-90,5-17.63,13.49-34.08,19.33-51.45a180.88,180.88,0,0,0-81-214.27c-21.95-12.67-47.3-21.3-63.66-40.66-11.14-13.17-16.87-30-25.74-44.77-23-38.25-67.4-61.25-112-62.62-56.36-1.72-146,35.2-145.36,102.8C65,154.45,73.28,171.47,82.66,187a325.48,325.48,0,0,0,44,57.21c28.05,29.14,68.11,54.31,107,43,32.37-9.39,53.92-44.06,52.52-77.73s-23-64.62-51.92-82c-11.55-6.94-27.45-11.55-37.61-2.7-4.27,3.7-6.6,9.14-8.22,14.55-10,33.21,2.39,69.57,22.28,98,10.54,15,23.44,28.81,39.5,37.72,20.28,11.26,44,14,66.64,19s46.24,13.37,60.1,32c11.37,15.28,14.42,35.21,14.49,54.25.13,37.56-10.72,76.19-35.74,104.19-11.72,13.11-29.72,24.2-46.16,18-9.9-3.75-16.57-12.84-23.06-21.21-16.73-21.54-39-42.51-66.27-43.11-14.93-.32-29.16,5.59-43.4,10A229.9,229.9,0,0,1,92.65,458c18,14.37,43.77,14.57,65.92,8.32s42.3-18.06,63.91-26c5.39-2,12.05-3.5,16.37.28,2.05,1.8,3.1,4.46,3.79,7.09,4.63,17.6-4.53,36.75-18.79,48s-32.71,16-50.8,18c-19.71,2.19-40.14,1.51-58.7-5.5s-35.09-21-42.06-39.54A325.81,325.81,0,0,0,51.41,587.41c.13,10.62,1.13,22.13,8.18,30.07,4.67,5.26,11.46,8.28,16.06,13.59a24,24,0,0,1,1.47,28.68,24,24,0,0,1-27.46,8.39c7.62-2.37,9.84,10.13,7.62,17.8q-6.78,23.47-13.58,47a231.86,231.86,0,0,1,89.78,19.58c-26.16,12.14-56.33,10.73-84.63,13-2.33.18-4.81.42-6.65,1.85s-2.7,3.77-3.38,6a98.49,98.49,0,0,0-4.2,25.33c-.09,2.49,0,5.12,1.17,7.3,2.29,4.11,7.66,5.09,12.34,5.63,12.68,1.45,25.55,2.9,38.14.8s25.06-8.26,31.92-19C105.43,815.49,77.11,821.67,54,832.68c-2.38,1.13-4.81,2.4-6.38,4.52-1.72,2.34-2.15,5.35-2.52,8.23-2.34,18-4.26,37.86,6.08,52.76,10.45,15.07,30.57,20.29,48.9,19.74a110.23,110.23,0,0,0,41.52-9.5c35.93-16.06,60.22-49.62,88.32-77.19,15.33-15,32.53-29,42.23-48.2,5.43-10.72,8.2-22.53,9.69-34.39.65-5.18,2.51-12.91,2.53-19.88a3.09,3.09,0,0,0-6.09-.74q-1.35,5.78-2.47,11.6c-3.73,19.37-6.06,39.17-8.6,58.76q-3.92,30.12-6.22,60.41a1139.59,1139.59,0,0,0-2.78,120.62c.75,25.28,2.54,51.29,13.57,74,10,20.64,27,37.12,45.19,51,15.11,11.54,31.49,21.73,49.5,27.84,34.57,11.73,72.23,7.67,108.66,8.58a8.8,8.8,0,0,1,6.13,2.55c4.39,4.53.35,10.66-3.76,14.43a89.86,89.86,0,0,1-65.41,23.2c14.41-16.51,46-13.88,54.18-34.22q-31.4-4.44-63-7.39c5.69-21.08,26.91-36.86,48.73-36.25,4.93.14,9.92,1,14.78.16,4.31-.76,8.25-2.85,12.28-4.56,14.79-6.3,33.88-6.93,45.13,4.55,6.14,6.26,8.9,15,11.18,23.46,1.9,7.1,3.61,14.57,2.05,21.76s-7.36,14-14.71,14.29c-2.61-14.08,11.22-27.12,25.48-28.33s27.86,6.17,39.21,14.89a156.13,156.13,0,0,1,37.09,40.75" transform="translate(36.45 5.9)"/><path class="cls-5" d="M56.34,669.88c-5.21-3.39-12.2-.84-17.47,2.46S28.21,679.82,22,679.52" transform="translate(36.45 5.9)"/><path class="cls-6" d="M217.7,501.07a12.86,12.86,0,0,0,7.75,6.46,68.28,68.28,0,0,1-24.1.84l7.25,9.15A55.32,55.32,0,0,1,184.54,515a18.91,18.91,0,0,0,6.17,7.61,28.62,28.62,0,0,1-21.48-7.51,81.45,81.45,0,0,0,5.93,13.37,40.69,40.69,0,0,1-24-12.35q1.17,6.52,2.35,13a29.63,29.63,0,0,1-18.88-13.47l.57,12.67a30.85,30.85,0,0,1-15.24-16.58q.63,7.82,1.27,15.64a39,39,0,0,1-16.55-22.45c7.39,4.33,15.57,4.92,24,6.39a162.76,162.76,0,0,0,45.57,1.93c15.17-1.67,30.13-6,43.36-13.62A3.77,3.77,0,0,0,217.7,501.07Z" transform="translate(36.45 5.9)"/></svg>